<?xml version="1.0" encoding="UTF-8" standalone="no"?>
<!-- Created with Inkscape (http://www.inkscape.org/) -->

<svg
   xmlns:dc="http://purl.org/dc/elements/1.1/"
   xmlns:cc="http://creativecommons.org/ns#"
   xmlns:rdf="http://www.w3.org/1999/02/22-rdf-syntax-ns#"
   xmlns:svg="http://www.w3.org/2000/svg"
   xmlns="http://www.w3.org/2000/svg"
   xmlns:sodipodi="http://sodipodi.sourceforge.net/DTD/sodipodi-0.dtd"
   xmlns:inkscape="http://www.inkscape.org/namespaces/inkscape"
   id="svg2"
   version="1.1"
   inkscape:version="0.91 r13725"
   xml:space="preserve"
   width="375"
   height="375"
   viewBox="0 0 375 375"
   sodipodi:docname="UW-Shield.svg"
   inkscape:export-filename="/Users/kid-a/Google Drive/Side Work/UW Berbee/Berbee-Walsh-horizontal.png"
   inkscape:export-xdpi="90"
   inkscape:export-ydpi="90"><metadata
     id="metadata8"><rdf:RDF><cc:Work
         rdf:about=""><dc:format>image/svg+xml</dc:format><dc:type
           rdf:resource="http://purl.org/dc/dcmitype/StillImage" /><dc:title></dc:title></cc:Work></rdf:RDF></metadata><defs
     id="defs6"><clipPath
       clipPathUnits="userSpaceOnUse"
       id="clipPath18"><path
         d="M 0,300 300,300 300,0 0,0 0,300 Z"
         id="path20"
         inkscape:connector-curvature="0" /></clipPath></defs><sodipodi:namedview
     pagecolor="#ffffff"
     bordercolor="#666666"
     borderopacity="1"
     objecttolerance="10"
     gridtolerance="10"
     guidetolerance="10"
     inkscape:pageopacity="0"
     inkscape:pageshadow="2"
     inkscape:window-width="1276"
     inkscape:window-height="755"
     id="namedview4"
     showgrid="false"
     inkscape:zoom="1.2586667"
     inkscape:cx="176.21601"
     inkscape:cy="192.61248"
     inkscape:window-x="4"
     inkscape:window-y="1"
     inkscape:window-maximized="1"
     inkscape:current-layer="g10" /><g
     id="g10"
     inkscape:groupmode="layer"
     inkscape:label="Berbee Walsh"
     transform="matrix(1.25,0,0,-1.25,0,375)"
     style="display:inline"><g
       id="g4581"
       transform="translate(150.63559,-6.9915252)"><g
         transform="translate(32.873002,171.48212)"
         id="g298"><path
           inkscape:connector-curvature="0"
           id="path300"
           style="fill:#f6d77a;fill-opacity:1;fill-rule:nonzero;stroke:none"
           d="m 0,0 c -0.699,6.829 -2.188,12.835 -4.304,17.905 -0.07,0.153 -0.298,0.7 -0.35,0.819 -1.733,3.968 -3.867,7.339 -6.353,10.03 -4.479,4.926 -10.044,7.629 -16.202,7.717 -0.228,0.009 -0.124,0.009 -0.124,0.009 -0.996,2.192 -3.639,3.697 -6.018,4.033 0,0 -1.418,5.783 -7.227,5.783 -5.81,0 -7.227,-5.787 -7.227,-5.787 -2.397,-0.332 -5.022,-1.837 -6.02,-4.029 0,0 0.096,0 -0.121,-0.009 -6.16,-0.088 -11.724,-2.791 -16.221,-7.717 -2.485,-2.691 -4.612,-6.062 -6.336,-10.03 -0.051,-0.119 -0.297,-0.666 -0.349,-0.819 -2.117,-5.07 -3.605,-11.076 -4.305,-17.905 -3.403,-33.421 11.637,-74.503 38.672,-80.803 0.42,-0.63 1.398,-1.907 1.907,-1.907 0.507,0 1.486,1.277 1.907,1.907 C -11.636,-74.503 3.396,-33.421 0,0" /></g><g
         transform="translate(24.072202,121.89572)"
         id="g302"><path
           inkscape:connector-curvature="0"
           id="path304"
           style="fill:#231f20;fill-opacity:1;fill-rule:nonzero;stroke:none"
           d="m 0,0 c -0.454,-1.033 -0.91,-2.048 -1.4,-3.026 -1.103,0.804 -2.38,1.363 -3.711,1.644 6.756,13.784 10.167,31.29 9.223,47.052 -0.017,0.332 -0.035,0.665 -0.071,0.994 1.174,0.485 2.466,0.722 3.762,0.678 C 9.046,31.466 6.245,14.335 0,0 m -17.954,-24.007 c -0.56,1.224 -1.399,2.362 -2.432,3.254 5.949,4.287 10.972,10.832 14.908,18.636 1.331,-0.245 2.624,-0.823 3.709,-1.645 -4.39,-8.837 -9.921,-15.714 -16.185,-20.245 m -10.761,-5.249 c 0.595,1.294 1.05,2.833 0.98,4.584 2.328,0.822 4.55,2.012 6.666,3.447 1.05,-0.875 1.908,-2.013 2.451,-3.256 -3.203,-2.204 -6.579,-3.833 -10.097,-4.775 m -2.572,-1.874 c -0.018,-0.016 -0.263,-0.315 -0.49,-0.315 -0.244,0 -0.49,0.299 -0.507,0.315 -1.157,1.453 -2.872,4.271 -2.222,7.647 0.173,0.945 1.817,1.383 2.729,1.383 0.909,0 2.538,-0.438 2.73,-1.383 0.647,-3.376 -1.086,-6.194 -2.24,-7.647 m -13.614,6.614 c 0.543,1.243 1.4,2.399 2.433,3.272 2.115,-1.442 4.322,-2.606 6.648,-3.428 -0.069,-1.751 0.368,-3.29 0.98,-4.584 -3.5,0.942 -6.876,2.554 -10.061,4.74 m -16.885,20.737 c 1.093,0.822 2.396,1.399 3.708,1.645 3.938,-7.805 8.986,-14.367 14.928,-18.636 -1.015,-0.91 -1.856,-2.03 -2.417,-3.272 -6.281,4.531 -11.81,11.426 -16.219,20.263 M -63.564,0 c -6.247,14.335 -9.055,31.479 -7.786,47.358 1.279,0.028 2.582,-0.222 3.736,-0.712 -0.018,-0.324 -0.043,-0.647 -0.07,-0.976 -0.928,-15.765 2.485,-33.268 9.239,-47.052 -1.312,-0.281 -2.608,-0.866 -3.71,-1.681 -0.479,0.998 -0.962,2.013 -1.409,3.063 m -7.62,49.411 c 1.085,10.591 4.024,19.226 8.383,25.307 1.189,-0.543 2.273,-1.379 3.131,-2.416 -4.182,-5.805 -7.018,-14.422 -7.873,-24.808 -1.175,0.455 -2.468,0.687 -3.736,0.666 0.026,0.416 0.061,0.836 0.095,1.251 m 26.317,35.294 c 1.032,0 3.536,-0.162 5.741,-1.549 2.431,-1.723 4.549,-4.584 4.933,-8.932 0.578,-6.677 -6.229,-7.73 -7.558,-7.718 -0.21,0.004 -0.316,0.197 0.35,0.88 1.566,2.007 2.082,5.074 1.556,7.541 -0.646,3.063 -2.815,5.456 -5.949,5.451 -5.162,-0.008 -9.745,-2.681 -13.369,-7.388 -0.865,1.01 -1.959,1.845 -3.139,2.41 4.521,5.989 10.488,9.305 17.435,9.305 m 6.843,4.566 c 2.694,0 5.022,-1.727 5.861,-4.287 0.193,-0.62 0.56,-0.629 0.77,0 0.823,2.56 3.167,4.287 5.862,4.287 2.309,0 4.41,-1.308 5.461,-3.358 -0.806,-0.136 -1.663,-0.369 -2.556,-0.714 -1.592,1.352 -3.114,1.331 -4.147,1.024 -2.205,-0.652 -3.99,-2.9 -4.951,-4.79 -0.019,-0.026 -0.035,-0.04 -0.053,-0.048 -0.035,0.008 -0.053,0.022 -0.071,0.048 -0.944,1.89 -2.747,4.138 -4.951,4.79 -1.033,0.307 -2.555,0.328 -4.148,-1.024 -0.874,0.345 -1.749,0.578 -2.536,0.714 1.05,2.05 3.148,3.358 5.459,3.358 m 6.247,5.508 c 4.741,0 5.792,-4.597 5.809,-4.641 -0.315,-0.022 -0.63,-0.061 -0.944,-0.127 l -0.859,-0.228 c -1.61,-0.537 -3.008,-1.635 -3.866,-3.149 -0.018,-0.039 -0.072,-0.132 -0.14,-0.179 -0.071,0.047 -0.123,0.14 -0.14,0.179 -0.875,1.514 -2.257,2.612 -3.867,3.149 l -0.858,0.228 c -0.314,0.066 -0.629,0.105 -0.963,0.127 0.018,0.044 1.086,4.641 5.828,4.641 m 13.088,-10.074 c 6.929,0 12.897,-3.32 17.447,-9.309 -1.191,-0.565 -2.292,-1.387 -3.168,-2.393 -3.622,4.699 -8.207,7.367 -13.368,7.375 -3.133,0.005 -5.286,-2.388 -5.934,-5.451 -0.523,-2.467 -0.016,-5.534 1.542,-7.541 0.769,-0.839 0.419,-1.107 0.227,-1.111 -2.031,-0.04 -7.996,1.272 -7.419,7.949 0.367,4.348 2.502,7.209 4.934,8.932 2.186,1.387 4.706,1.549 5.739,1.549 m 4.515,-82.886 c 1.242,2.223 2.502,4.673 3.726,7.386 0.701,1.57 2.504,5.856 3.815,11.824 l 0.069,0.314 c 0.737,3.383 1.209,6.817 1.418,10.194 l 0,0.249 c 0.035,0.333 0.035,0.674 0.054,1.01 0.07,1.754 0.07,3.521 0,5.254 -0.035,1.085 -0.158,2.826 -0.473,4.9 3.902,0.345 6.912,1.582 8.504,2.388 C 3.482,29.502 0.035,11.943 -6.72,-1.663 c -1.47,0.316 -5.075,1.261 -7.454,3.482 m -12.843,-15.677 c 3.428,2.485 7.925,7.174 12.441,14.978 2.432,-2.188 5.844,-3.149 7.489,-3.517 -3.902,-7.612 -8.854,-13.929 -14.734,-17.918 -1.101,0.857 -3.991,3.324 -5.196,6.457 m -8.767,-0.543 0.017,0 c 1.889,-1.391 3.831,-2.151 3.99,-2.188 0.14,0.037 2.082,0.797 3.972,2.188 0.034,0.018 0.087,0.052 0.121,0.069 1.243,-3.07 3.92,-5.441 5.181,-6.457 -1.715,-1.084 -3.5,-1.994 -5.354,-2.677 -0.018,0.071 -0.018,0.141 -0.035,0.193 -0.368,1.96 -2.994,2.362 -3.92,2.362 -0.911,0 -3.472,-0.402 -3.868,-2.362 0,-0.052 -0.016,-0.122 -0.016,-0.193 -1.838,0.683 -3.606,1.558 -5.285,2.643 1.225,0.963 3.919,3.342 5.197,6.422 M -48.943,1.05 c 4.549,-7.839 9.045,-12.511 12.495,-14.978 -1.243,-3.168 -4.202,-5.636 -5.233,-6.44 -5.931,3.99 -10.936,10.298 -14.892,17.928 1.524,0.306 5.074,1.251 7.63,3.49 m -9.065,41.891 c -0.306,-2.069 -0.437,-3.806 -0.472,-4.891 -0.069,-1.733 -0.069,-3.5 0,-5.254 0.017,-0.336 0.035,-0.677 0.052,-1.01 l 0.018,-0.249 c 0.192,-3.377 0.674,-6.811 1.408,-10.194 l 0.072,-0.314 c 1.319,-5.968 3.105,-10.254 3.813,-11.824 1.233,-2.757 2.511,-5.215 3.772,-7.463 -2.539,-2.292 -6.318,-3.195 -7.595,-3.456 -6.851,13.626 -10.341,31.189 -9.563,47.03 1.601,-0.81 4.611,-2.034 8.495,-2.375 m 9.047,18.19 c -5.704,-4.17 -8.015,-11.794 -8.924,-17.407 -4.025,0.355 -7.113,1.702 -8.575,2.462 0.649,10.81 3.396,19.289 7.368,24.94 0.707,-1.837 3,-5.809 10.131,-9.995 M -4.48,71.205 C -0.385,65.513 2.414,56.961 2.904,46.213 1.47,45.461 -1.628,44.095 -5.687,43.729 c -0.91,5.616 -3.22,13.245 -8.925,17.41 7.211,4.244 9.466,8.264 10.132,10.066 m -40.683,2.327 c -0.963,-0.241 -1.05,-1.925 -0.876,-3.001 0.194,-1.237 0.823,-2.459 1.515,-2.366 1.321,0.175 2.354,2.974 2.248,5.079 -0.157,2.991 -1.821,3.762 -2.774,3.762 -1.566,0 -2.808,-2.525 -2.808,-5.871 0,-3.342 1.208,-5.866 2.808,-5.866 0.622,-0.053 13.011,-1.751 12.03,9.06 -0.455,5.078 -3.57,8.748 -6.439,10.468 2.73,1.632 6.248,-1.243 7.296,-4.698 0.227,-0.731 0.631,-0.692 0.858,0.034 1.137,3.653 4.182,6.296 6.911,4.664 -2.869,-1.72 -5.686,-5.39 -6.14,-10.468 -0.998,-10.811 11.408,-9.113 12.02,-9.06 1.611,0 2.818,2.524 2.818,5.866 0,3.346 -1.243,5.871 -2.818,5.871 -0.962,0 -2.625,-0.771 -2.764,-3.762 -0.123,-2.105 0.909,-4.904 2.239,-5.079 0.701,-0.093 1.331,1.129 1.523,2.366 0.174,1.076 0.087,2.76 -0.875,3.001 -0.298,0.079 -0.612,-0.11 -0.683,-0.411 -0.07,-0.275 0.594,-0.744 0.56,-1.982 -0.035,-1.85 -1.888,-0.927 -1.644,2.008 0.226,2.608 1.556,2.44 1.609,2.446 0.753,0 1.872,-1.553 1.872,-4.458 0,-2.581 -1.26,-5.363 -3.639,-3.911 -1.996,1.466 -2.799,4.843 -2.239,7.459 0.243,1.198 1.294,4.461 4.618,4.461 4.725,0 9.205,-2.488 12.791,-7.064 l 0,-0.005 0.035,-0.03 c 0.019,-0.022 0.036,-0.049 0.053,-0.075 -0.35,-1.177 -2.308,-5.66 -10.254,-10.315 -0.017,0.01 -0.017,0.017 -0.035,0.023 -2.659,1.705 -5.792,2.393 -8.608,2.393 -4.393,0 -5.74,-1.331 -7.754,-1.331 -0.034,0 -0.05,0.005 -0.068,0.005 -0.035,0 -0.053,-0.005 -0.087,-0.005 -2.014,0 -3.36,1.331 -7.752,1.331 -2.817,0 -5.951,-0.688 -8.6,-2.393 -0.01,-0.006 -0.028,-0.019 -0.045,-0.028 -7.882,4.598 -9.861,8.995 -10.254,10.254 3.57,4.713 8.067,7.24 12.879,7.24 3.342,0 4.375,-3.263 4.619,-4.461 0.561,-2.616 -0.227,-5.993 -2.239,-7.459 -2.38,-1.452 -3.623,1.33 -3.623,3.911 0,2.905 1.12,4.458 1.855,4.458 0.071,-0.006 1.399,0.162 1.619,-2.446 0.255,-2.935 -1.619,-3.858 -1.645,-2.008 -0.027,1.238 0.64,1.707 0.569,1.982 -0.087,0.301 -0.386,0.49 -0.682,0.411 M 7.629,49.411 C 7.664,48.99 7.696,48.576 7.734,48.151 6.454,48.181 5.177,47.959 3.988,47.513 3.113,57.902 0.279,66.524 -3.919,72.33 c 0.855,1.022 1.959,1.863 3.148,2.401 4.358,-6.081 7.314,-14.72 8.4,-25.32 m 1.172,0.175 c -0.699,6.829 -2.188,12.835 -4.304,17.905 -0.07,0.154 -0.298,0.7 -0.351,0.818 -1.732,3.967 -3.867,7.341 -6.352,10.031 -4.48,4.925 -10.044,7.63 -16.202,7.716 -0.229,0.009 -0.123,0.009 -0.123,0.009 -0.997,2.192 -3.639,3.697 -6.019,4.034 0,0 -1.418,5.783 -7.227,5.783 -5.81,0 -7.227,-5.788 -7.227,-5.788 -2.397,-0.332 -5.022,-1.837 -6.02,-4.029 0,0 0.096,0 -0.121,-0.009 -6.16,-0.086 -11.725,-2.791 -16.222,-7.716 -2.485,-2.69 -4.611,-6.064 -6.336,-10.031 -0.05,-0.118 -0.296,-0.664 -0.348,-0.818 -2.117,-5.07 -3.605,-11.076 -4.305,-17.905 -3.403,-33.422 11.637,-74.503 38.671,-80.802 0.42,-0.631 1.401,-1.909 1.908,-1.909 0.507,0 1.488,1.278 1.908,1.909 27.034,6.299 42.066,47.38 38.67,80.802" /></g><g
         transform="translate(-8.963898,105.77072)"
         id="g306"><path
           inkscape:connector-curvature="0"
           id="path308"
           style="fill:#c20430;fill-opacity:1;fill-rule:nonzero;stroke:none"
           d="m 0,0 c -7.195,3.195 -14.412,12.112 -20.317,25.107 -1.418,3.144 -5.994,14.511 -5.391,28.898 0.094,2.257 0.465,6.746 1.9,11.455 1.803,5.922 4.662,10.164 8.49,12.605 2.107,1.335 4.764,2.196 7.295,2.365 0.333,0.02 0.666,0.031 1.022,0.031 2.394,0 4.364,-0.534 5.947,-0.964 l 0.043,-0.01 c 0.914,-0.246 1.704,-0.459 2.249,-0.474 l 0.07,0 c 0.515,0.021 1.255,0.219 2.187,0.469 l 0.063,0.017 c 1.587,0.428 3.569,0.962 5.96,0.962 0.355,0 0.697,-0.011 1.015,-0.031 2.53,-0.169 5.184,-1.028 7.285,-2.36 3.83,-2.445 6.686,-6.686 8.49,-12.61 1.434,-4.708 1.806,-9.197 1.901,-11.455 C 28.823,39.493 24.237,28.214 22.816,25.102 16.933,12.126 9.718,3.21 2.499,0 L 1.259,-0.566 0,0" /></g><g
         transform="translate(4.578102,169.55732)"
         id="g310"><path
           inkscape:connector-curvature="0"
           id="path312"
           style="fill:#ffffff;fill-opacity:1;fill-rule:nonzero;stroke:none"
           d="m 0,0 0,-2.748 0.544,0.088 c 0.017,0 0.122,0.013 0.262,0.013 0.298,0 0.856,-0.047 1.208,-0.407 0.332,-0.332 0.436,-0.901 0.314,-1.645 0,-0.026 -5.513,-23.932 -6.561,-28.478 -1.209,5.758 -7.787,37.201 -7.787,37.201 l -0.018,0.136 -1.313,0 -0.017,-0.139 c 0,0 -4.743,-30.619 -5.705,-36.747 -1.225,5.307 -6.526,28.001 -6.526,28.001 -0.018,0.144 -0.018,0.285 -0.018,0.412 0,0.648 0.14,1.115 0.456,1.404 0.401,0.389 1.014,0.337 1.067,0.328 l 0.541,-0.07 0,2.651 -9.221,0 0,-2.59 0.411,-0.07 c 0.202,-0.034 1.235,-0.289 1.391,-1.226 0,-0.012 10.797,-46.312 11.253,-48.29 l 0.034,-0.123 1.627,0 0.018,0.141 c 0.053,0.315 4.444,29.055 5.268,34.432 1.032,-5.355 6.63,-34.117 6.682,-34.432 l 0.035,-0.141 1.436,0 10.727,48.435 c 0.244,1.008 1.121,1.116 1.486,1.116 0.053,0 0.089,-0.004 0.105,-0.004 L 8.242,-2.791 8.242,0 0,0" /></g></g></g></svg>