<?xml version="1.0" encoding="UTF-8" standalone="no"?>
<!-- Created with Inkscape (http://www.inkscape.org/) -->

<svg
   xmlns:dc="http://purl.org/dc/elements/1.1/"
   xmlns:cc="http://creativecommons.org/ns#"
   xmlns:rdf="http://www.w3.org/1999/02/22-rdf-syntax-ns#"
   xmlns:svg="http://www.w3.org/2000/svg"
   xmlns="http://www.w3.org/2000/svg"
   xmlns:sodipodi="http://sodipodi.sourceforge.net/DTD/sodipodi-0.dtd"
   xmlns:inkscape="http://www.inkscape.org/namespaces/inkscape"
   width="210mm"
   height="297mm"
   viewBox="0 0 744.09448819 1052.3622047"
   id="svg3455"
   version="1.1"
   inkscape:version="0.91 r13725"
   sodipodi:docname="verona-hockey-text.svg">
  <defs
     id="defs3457">
    <clipPath
       clipPathUnits="userSpaceOnUse"
       id="clipPath16">
      <path
         d="m 0,782.042 1293.075,0 L 1293.075,0 0,0 0,782.042 Z"
         id="path18"
         inkscape:connector-curvature="0" />
    </clipPath>
  </defs>
  <sodipodi:namedview
     id="base"
     pagecolor="#ffffff"
     bordercolor="#666666"
     borderopacity="1.0"
     inkscape:pageopacity="0.0"
     inkscape:pageshadow="2"
     inkscape:zoom="0.49497475"
     inkscape:cx="554.27172"
     inkscape:cy="467.27922"
     inkscape:document-units="px"
     inkscape:current-layer="layer1"
     showgrid="false"
     inkscape:window-width="1276"
     inkscape:window-height="755"
     inkscape:window-x="4"
     inkscape:window-y="1"
     inkscape:window-maximized="1" />
  <metadata
     id="metadata3460">
    <rdf:RDF>
      <cc:Work
         rdf:about="">
        <dc:format>image/svg+xml</dc:format>
        <dc:type
           rdf:resource="http://purl.org/dc/dcmitype/StillImage" />
        <dc:title></dc:title>
      </cc:Work>
    </rdf:RDF>
  </metadata>
  <g
     inkscape:label="Layer 1"
     inkscape:groupmode="layer"
     id="layer1">
    <g
       transform="matrix(0.72527176,0,0,-0.72527176,-109.17421,1025.056)"
       id="g12">
      <g
         id="g14"
         clip-path="url(#clipPath16)">
        <g
           id="g20"
           transform="translate(820.913,572.7724)">
          <path
             d="M 0,0 C 15.719,7.279 31.424,14.708 47.121,22.38 40.031,7.044 32.938,-8.051 25.834,-22.944 17.219,-15.148 8.608,-7.509 0,0 m -485.417,-30.899 c -8.763,-4.676 -17.521,-9.491 -26.276,-14.455 1.804,4.596 3.609,9.165 5.414,13.707 7.35,0.648 14.702,1.276 22.055,1.882 -0.403,-0.539 -0.81,-0.929 -1.193,-1.134 m 28.767,65.586 c -1.816,-4.19 -3.633,-8.402 -5.449,-12.635 -7.492,-0.204 -14.983,-0.416 -22.475,-0.636 1.089,2.601 2.179,5.191 3.267,7.774 1.504,3.566 3.008,7.115 4.511,10.648 6.716,-1.751 13.431,-3.467 20.146,-5.151 m 434.824,6.58 c -2.945,-1.48 -5.891,-2.952 -8.836,-4.419 0.955,1.98 1.91,3.965 2.865,5.951 1.99,-0.509 3.981,-1.02 5.971,-1.532 M -130.174,0.546 c -22.183,0.128 -44.367,0.117 -66.55,-0.033 0.479,0.957 0.957,1.914 1.436,2.87 1.206,2.393 2.222,3.477 2.601,3.831 0.422,0.111 1.65,0.361 4.177,0.372 24.342,0.108 48.686,0.073 73.028,-0.104 0.39,-0.003 0.783,-0.006 1.174,-0.009 -1.174,-2.339 -2.348,-4.676 -3.522,-7.013 -4.113,0.033 -8.228,0.063 -12.344,0.086 m -217.169,-0.1 c 1.232,2.612 2.264,3.825 2.68,4.252 0.455,0.133 1.683,0.414 4.14,0.486 8.594,0.249 17.189,0.479 25.784,0.693 -0.496,-1.023 -0.991,-2.046 -1.487,-3.07 -1.114,-2.317 -2.017,-3.648 -2.561,-4.342 -0.575,-0.085 -1.475,-0.179 -2.774,-0.218 -9.084,-0.275 -18.167,-0.574 -27.248,-0.895 0.489,1.032 0.978,2.064 1.466,3.094 m 635.189,49.01 c -11.533,10e-4 -23.064,0.002 -34.597,0.003 l -8.293,0 c -1.846,-1.837 -3.69,-3.662 -5.534,-5.476 -3.031,-2.978 -6.062,-5.925 -9.091,-8.84 -0.075,0.334 -0.151,0.667 -0.225,1.001 -0.994,4.454 -1.988,8.892 -2.982,13.316 -5.137,10e-4 -10.272,10e-4 -15.409,0.002 -11.375,0 -22.75,10e-4 -34.127,0.002 -8.271,0 -16.544,0.001 -24.818,0.001 0.022,-0.054 0.041,-0.108 0.061,-0.162 -17.6,0.004 -35.202,0.007 -52.801,0.01 -15.546,0.002 -31.09,0.005 -46.635,0.008 -4.444,0 -8.885,0.001 -13.328,0.002 -13.329,0.002 -26.657,0.003 -39.985,0.005 -2,0 -4.002,0 -6.004,10e-4 -6.248,0 -12.496,10e-4 -18.744,0.002 -8.691,0 -17.383,10e-4 -26.072,0.002 l -2.945,0 c -15.286,0.001 -30.571,0.002 -45.858,0.003 -15.439,0.001 -30.879,0.001 -46.318,0.001 -1.637,0.029 -3.31,0.045 -5.042,0.045 -31.615,0 -63.23,0 -94.845,-0.002 -12.958,0 -25.917,-0.001 -38.874,-0.002 -2.35,0.092 -4.8,0.142 -7.371,0.142 l -105.547,0 -115.025,0 c 0.268,-0.076 0.537,-0.151 0.806,-0.226 -11.942,-0.003 -23.882,-0.007 -35.823,-0.01 -35.693,-0.01 -71.387,-0.02 -107.08,-0.033 33.573,-12.061 67.078,-22.545 100.571,-31.934 0.005,0 0.01,-0.004 0.016,-0.007 -0.003,-0.011 -0.007,-0.021 -0.01,-0.03 -8.303,-21.539 -16.589,-43.7 -24.853,-66.541 -2.829,-7.818 -5.655,-15.716 -8.477,-23.695 8.659,1.301 17.322,2.561 25.99,3.782 9.77,1.376 19.545,2.701 29.324,3.977 4.448,0.579 8.896,1.148 13.346,1.707 14.045,1.765 28.099,3.424 42.162,4.979 11.882,1.315 23.77,2.554 35.664,3.72 4.451,0.436 8.903,0.861 13.355,1.276 1.462,3.388 2.923,6.762 4.385,10.122 1.088,2.503 2.178,5 3.267,7.489 2.048,-3.384 4.806,-5.737 7.256,-7.306 0.01,-0.007 0.021,-0.014 0.031,-0.021 0.011,-0.006 0.022,-0.013 0.033,-0.02 8.503,-5.405 21.508,-7.041 40.938,-5.599 15.419,1.135 30.845,2.145 46.275,3.031 17.545,1.007 31.34,3.761 42.16,8.472 0.011,0.005 0.022,0.009 0.033,0.014 0.011,0.005 0.022,0.01 0.032,0.015 5.82,2.556 10.963,5.754 15.411,9.574 2.066,-3.157 4.851,-5.416 7.324,-6.95 8.506,-5.288 21.531,-7.41 40.986,-7.005 15.515,0.316 31.032,0.508 46.55,0.572 15.12,0.064 27.256,1.861 36.926,5.605 -0.955,-1.888 -1.908,-3.776 -2.863,-5.663 8.734,-0.067 17.471,-0.174 26.205,-0.321 9.818,-0.164 19.635,-0.38 29.453,-0.645 4.461,-0.12 8.922,-0.251 13.385,-0.393 1.433,2.857 2.869,5.718 4.303,8.582 1.826,3.647 3.65,7.299 5.474,10.959 5.926,-5.192 11.856,-10.432 17.785,-15.73 1.881,-1.679 3.762,-3.365 5.643,-5.056 2.973,-0.129 5.947,-0.263 8.92,-0.4 13.885,-0.645 27.766,-1.39 41.643,-2.236 0.183,-0.012 0.367,-0.022 0.55,-0.034 8.723,-0.533 17.444,-1.106 26.162,-1.72 4.483,-0.315 8.967,-0.641 13.45,-0.977 17.251,-1.295 34.496,-2.746 51.73,-4.353 13.803,-1.287 27.598,-2.674 41.387,-4.162 4.446,-0.479 8.889,-0.97 13.332,-1.47 5.914,-0.666 11.825,-1.35 17.735,-2.053 6.699,-0.796 13.394,-1.616 20.088,-2.46 6.208,-0.782 12.416,-1.586 18.621,-2.409 l 0,0.058 c 3.486,-0.463 6.972,-0.931 10.457,-1.406 1.431,3.466 2.863,6.949 4.297,10.451 3.382,8.271 6.767,16.64 10.156,25.113 19.683,15.706 39.383,32.513 59.131,50.695 10.631,9.789 21.275,19.975 31.939,30.604 -15.056,0.001 -30.115,0.003 -45.172,0.004"
             style="fill:#100f0d;fill-opacity:1;fill-rule:nonzero;stroke:none"
             id="path22"
             inkscape:connector-curvature="0" />
        </g>
        <g
           id="g24"
           transform="translate(993.521,535.9873)">
          <path
             d="m 0,0 c -4.027,-1.471 -8.057,-2.924 -12.086,-4.361 1.779,4.134 3.559,8.293 5.338,12.474 1.717,4.034 3.433,8.091 5.148,12.169 -0.402,0.028 -0.806,0.057 -1.209,0.084 0.004,0.014 0.01,0.027 0.016,0.039 2.231,5.289 4.461,10.614 6.691,15.979 0.239,0.573 0.479,1.146 0.717,1.72 C 6.822,31.749 9.031,25.35 11.238,18.904 10.221,16.462 9.205,14.028 8.188,11.602 8.035,11.285 7.885,10.97 7.732,10.653 7.252,9.658 6.668,8.312 5.943,6.54 4.529,3.078 2.584,0.94 0,0 m -142.971,5.64 c -0.36,-0.752 -0.717,-1.502 -1.076,-2.252 -1.942,1.775 -3.885,3.543 -5.828,5.302 -11.083,10.039 -22.161,19.818 -33.231,29.393 18.998,8.788 37.977,17.775 56.943,27.128 1.061,-0.297 2.121,-0.595 3.184,-0.893 1.158,-0.325 2.271,-0.922 3.406,-1.822 1.264,-1.004 2.207,-2.084 0.908,-5.003 C -126.758,39.905 -134.86,22.64 -142.971,5.64 m -159.805,26.851 c -25.411,0.161 -50.824,0.122 -76.233,-0.118 -0.058,0 -0.115,-10e-4 -0.172,-10e-4 0.26,0.653 0.61,1.443 1.085,2.388 1.153,2.309 2.305,4.617 3.457,6.923 2.071,4.114 3.963,5.556 4.679,5.984 2.094,1.253 5.967,1.531 8.848,1.542 24.337,0.097 48.676,0.065 73.012,-0.092 3.054,-0.02 6.109,-0.042 9.164,-0.065 0.697,2.023 1.392,4.047 2.088,6.071 0.644,1.883 2.129,6.221 1.052,10.733 1.079,-0.3 2.124,-0.815 3.186,-1.584 0.006,-0.004 0.01,-0.007 0.016,-0.011 0.006,-0.004 0.011,-0.008 0.015,-0.012 1.028,-0.737 2.307,-1.661 0.862,-4.577 -1.721,-3.473 -3.442,-6.942 -5.164,-10.407 l 0.031,0 c -2.826,-5.647 -5.654,-11.285 -8.483,-16.916 -5.814,0.058 -11.628,0.105 -17.443,0.142 m -116.703,31.868 c 0.575,-0.493 2.393,-2.04 -0.718,-6.987 -0.219,-0.334 -0.416,-0.68 -0.626,-1.018 0.648,3.334 0.542,6.353 -0.308,9.059 0.477,-0.209 1.033,-0.529 1.652,-1.054 M -494.198,29.96 c -12.292,-0.409 -24.583,-0.865 -36.87,-1.368 -0.082,-0.003 -0.161,-0.007 -0.24,-0.009 0.263,0.708 0.616,1.564 1.095,2.589 1.18,2.513 2.361,5.019 3.541,7.519 2.09,4.446 4.001,6.085 4.76,6.602 2.104,1.363 5.948,1.734 8.812,1.808 11.274,0.289 22.549,0.55 33.825,0.785 0.671,0.013 1.251,0.011 1.75,-0.001 -0.219,-0.645 -0.55,-1.465 -1.049,-2.492 -1.179,-2.416 -2.358,-4.838 -3.537,-7.265 -2.634,-5.461 -4.663,-6.814 -4.748,-6.866 -0.844,-0.542 -3.21,-1.164 -7.339,-1.302 m 609.452,49.568 c -11.529,0.098 -23.059,0.192 -34.59,0.282 -1.709,0.013 -3.42,0.026 -5.129,0.04 -1.144,-1.133 -2.287,-2.262 -3.43,-3.386 -6.201,-6.102 -12.4,-12.068 -18.595,-17.908 -0.996,4.449 -1.99,8.884 -2.987,13.304 -0.615,2.736 -1.23,5.465 -1.847,8.19 -3.178,0.023 -6.358,0.046 -9.535,0.068 -11.375,0.08 -22.748,0.156 -34.123,0.229 -5.122,0.033 -10.243,0.064 -15.364,0.095 0.02,-0.054 0.039,-0.109 0.059,-0.165 -28.363,0.178 -56.731,0.332 -85.098,0.464 -7.932,0.036 -15.862,0.072 -23.793,0.104 -4.444,0.018 -8.887,0.037 -13.328,0.053 -13.331,0.053 -26.661,0.099 -39.991,0.141 -1.238,0.004 -2.478,0.008 -3.716,0.012 -3.088,0.009 -6.174,0.018 -9.262,0.027 2.058,-0.529 4.119,-1.06 6.178,-1.594 -12.592,-6.387 -25.19,-12.641 -37.799,-18.814 1.588,3.262 3.175,6.529 4.761,9.804 1.717,3.545 3.434,7.099 5.151,10.662 -5.381,0.013 -10.762,0.025 -16.143,0.037 -16.269,0.035 -32.539,0.061 -48.808,0.081 -15.455,0.018 -30.912,0.03 -46.368,0.034 -1.616,0.029 -3.28,0.047 -5.004,0.047 -31.622,0.006 -63.243,-0.017 -94.864,-0.068 -13.033,-0.022 -26.065,-0.047 -39.097,-0.079 -2.268,0.086 -4.641,0.131 -7.155,0.125 -35.188,-0.086 -70.375,-0.208 -105.559,-0.364 -23.735,-0.104 -47.47,-0.225 -71.204,-0.362 7.066,-1.857 14.131,-3.674 21.196,-5.456 -0.118,-0.268 -0.235,-0.535 -0.352,-0.803 -3.039,-6.94 -6.077,-13.941 -9.115,-21.005 -12.502,-0.403 -25.001,-0.833 -37.498,-1.288 2.174,5.263 4.348,10.489 6.523,15.681 1.765,4.213 3.53,8.402 5.295,12.569 -5.384,-0.034 -10.768,-0.068 -16.152,-0.103 -16.244,-0.107 -32.487,-0.221 -48.729,-0.343 -22.094,-0.166 -44.185,-0.346 -66.276,-0.54 20.772,-6.915 41.526,-13.286 62.274,-19.229 1.153,-0.33 2.259,-0.983 3.383,-1.99 0.005,-0.005 0.011,-0.011 0.016,-0.016 0.006,-0.004 0.011,-0.008 0.016,-0.013 1.246,-1.111 2.167,-2.298 0.827,-5.747 -8.306,-21.386 -16.597,-43.385 -24.867,-66.053 -1.753,-4.804 -3.504,-9.637 -5.254,-14.501 5.364,0.744 10.729,1.475 16.095,2.189 9.772,1.303 19.548,2.558 29.33,3.765 2.753,0.34 5.507,0.676 8.262,1.008 0.897,2.334 1.796,4.66 2.693,6.98 3.258,8.413 6.517,16.736 9.779,24.97 12.486,1.036 24.978,2.016 37.474,2.94 -1.259,-3.019 -1.815,-4.34 -2.038,-4.854 -0.015,-0.034 -0.029,-0.067 -0.044,-0.102 -0.014,-0.034 -0.028,-0.069 -0.042,-0.103 -1.463,-3.611 -3.436,-6.049 -6.035,-7.442 -13.125,-7.041 -26.243,-14.391 -39.348,-22.096 14.927,1.788 29.865,3.465 44.811,5.029 11.883,1.244 23.771,2.418 35.665,3.522 2.755,0.256 5.511,0.506 8.267,0.754 0.904,2.104 1.809,4.202 2.713,6.294 10.135,23.445 20.27,46.226 30.399,68.448 0.193,-0.141 0.391,-0.299 0.602,-0.489 0.007,-0.007 0.013,-0.013 0.019,-0.02 0.008,-0.006 0.014,-0.012 0.021,-0.018 0.634,-0.572 2.309,-2.062 -0.301,-7.043 -1.307,-2.206 -2.401,-4.249 -3.254,-6.07 -0.008,-0.016 -0.016,-0.034 -0.024,-0.051 -0.007,-0.016 -0.015,-0.034 -0.022,-0.051 -3.236,-7.171 -6.472,-14.403 -9.709,-21.696 -6.108,-13.753 -4.624,-23.929 4.423,-29.724 0.006,-0.004 0.013,-0.008 0.02,-0.013 0.006,-0.004 0.013,-0.008 0.021,-0.013 7.111,-4.533 18.574,-5.914 36.087,-4.683 15.417,1.074 30.841,2.03 46.27,2.869 16.273,0.885 28.91,3.346 38.624,7.573 0.007,0.003 0.013,0.006 0.02,0.009 0.007,0.003 0.013,0.006 0.02,0.009 10.129,4.448 17.989,11.206 23.419,20.175 -1.496,-7.797 1.08,-13.848 7.753,-18 7.105,-4.426 18.574,-6.212 36.091,-5.867 15.513,0.3 31.027,0.481 46.542,0.543 15.633,0.061 27.601,2.099 36.581,6.373 6.145,2.926 11.536,7.531 16.481,14.102 1.387,1.843 2.773,3.688 4.16,5.532 -2.65,-5.269 -5.303,-10.533 -7.957,-15.795 -1.742,-3.453 -3.484,-6.905 -5.229,-10.356 5.407,-0.058 10.813,-0.129 16.219,-0.215 9.817,-0.156 19.633,-0.36 29.447,-0.611 2.762,-0.071 5.524,-0.145 8.286,-0.223 0.888,1.768 1.775,3.538 2.664,5.309 3.207,6.397 6.414,12.811 9.617,19.244 8.635,-7.524 17.275,-15.144 25.922,-22.888 1.164,-1.042 2.326,-2.087 3.49,-3.134 1.84,-0.078 3.682,-0.157 5.521,-0.238 13.883,-0.61 27.762,-1.316 41.639,-2.116 3.504,-0.203 7.01,-0.412 10.516,-0.625 4.783,-0.293 9.564,-0.597 14.345,-0.913 0.616,-0.041 1.231,-0.082 1.846,-0.123 30.961,-2.061 61.897,-4.598 92.794,-7.611 4.591,-0.448 9.181,-0.906 13.771,-1.375 2.75,-0.281 5.502,-0.565 8.254,-0.854 7.608,-0.798 15.211,-1.624 22.814,-2.481 6.7,-0.754 13.395,-1.53 20.09,-2.329 3.844,-0.459 7.688,-0.925 11.532,-1.398 l 0,0.058 c 1.439,-0.178 2.879,-0.355 4.318,-0.535 2.73,-0.341 5.461,-0.685 8.191,-1.032 0.887,2.139 1.774,4.287 2.661,6.44 3.558,8.647 7.119,17.403 10.683,26.27 20.069,15.994 40.154,33.117 60.287,51.663 6.582,6.062 13.168,12.276 19.762,18.652 -9.318,0.084 -18.637,0.166 -27.955,0.245"
             style="fill:#f25423;fill-opacity:1;fill-rule:nonzero;stroke:none"
             id="path26"
             inkscape:connector-curvature="0" />
        </g>
        <g
           id="g28"
           transform="translate(458.2636,568.2236)">
          <path
             d="m 0,0 c 1.182,2.525 2.365,5.043 3.546,7.555 2.314,4.94 4.696,7.246 6.293,8.318 2.689,1.762 6.84,2.714 12.342,2.841 11.273,0.261 22.547,0.496 33.822,0.708 6.182,0.113 7.349,-0.884 7.355,-0.893 0.009,-0.016 0.826,-1.437 -1.628,-6.481 C 60.55,9.636 59.371,7.219 58.191,4.797 55.464,-0.841 53.065,-2.968 51.875,-3.728 49.719,-5.111 46.073,-5.901 41.038,-6.081 28.744,-6.518 16.453,-7.004 4.164,-7.541 0.091,-7.72 -1.581,-7.335 -2.12,-7.154 -2.195,-6.562 -2.153,-4.632 0,0 m 650.523,42.256 c -11.525,0.171 -23.055,0.334 -34.582,0.491 -0.922,0.013 -1.842,0.026 -2.764,0.037 -0.613,-0.607 -1.228,-1.215 -1.844,-1.819 -8.58,-8.449 -17.154,-16.637 -25.724,-24.588 -1.686,7.528 -3.369,15.013 -5.057,22.455 -0.332,1.465 -0.664,2.928 -0.996,4.39 -1.711,0.02 -3.424,0.042 -5.134,0.062 -11.374,0.14 -22.747,0.274 -34.12,0.4 -2.757,0.031 -5.515,0.061 -8.273,0.09 0.019,-0.055 0.039,-0.111 0.058,-0.167 -36.435,0.403 -72.875,0.739 -109.32,1.008 -2.221,0.016 -4.442,0.033 -6.662,0.048 -4.444,0.032 -8.887,0.063 -13.331,0.093 -7.455,0.05 -14.912,0.098 -22.369,0.142 -5.875,0.035 -11.748,0.068 -17.623,0.1 -0.668,0.003 -1.334,0.007 -2.002,0.011 -0.539,-0.275 -1.08,-0.548 -1.621,-0.822 -15.773,-7.986 -31.558,-15.764 -47.359,-23.433 -1.014,0.015 -2.03,0.028 -3.045,0.042 3.039,6.202 6.076,12.427 9.109,18.676 0.926,1.905 1.852,3.812 2.778,5.722 -2.899,0.012 -5.797,0.023 -8.696,0.034 -16.271,0.06 -32.543,0.106 -48.816,0.139 -11.899,0.025 -23.799,0.042 -35.699,0.053 1.095,-0.269 2.189,-0.537 3.285,-0.806 -5.332,0.573 -11.615,0.858 -18.965,0.861 -31.625,0.01 -63.252,-0.03 -94.877,-0.118 -12.604,-0.037 -25.208,-0.08 -37.812,-0.131 0.127,-0.03 0.254,-0.059 0.38,-0.088 -2.74,0.141 -5.675,0.208 -8.826,0.194 -35.192,-0.151 -70.382,-0.363 -105.568,-0.636 -12.781,-0.098 -25.562,-0.206 -38.342,-0.32 0.269,-0.068 0.537,-0.136 0.806,-0.203 -0.615,-0.006 -1.231,-0.011 -1.846,-0.017 -1.484,-0.013 -2.968,-0.027 -4.452,-0.042 -0.486,-1.103 -0.973,-2.208 -1.46,-3.314 -3.456,-7.86 -6.911,-15.796 -10.367,-23.813 -16.259,-0.585 -32.513,-1.219 -48.763,-1.902 2.987,7.308 5.975,14.545 8.964,21.716 0.95,2.278 1.899,4.551 2.849,6.816 -2.898,-0.031 -5.797,-0.064 -8.695,-0.096 -16.243,-0.184 -32.485,-0.381 -48.725,-0.591 -11.895,-0.154 -23.789,-0.315 -35.682,-0.483 11.178,-3.521 22.353,-6.899 33.526,-10.151 1.956,-0.568 3.737,-1.594 5.445,-3.126 2.114,-1.887 4.234,-4.72 2.008,-10.405 -8.309,-21.274 -16.603,-43.152 -24.877,-65.694 -0.945,-2.571 -1.889,-5.152 -2.832,-7.741 2.89,0.377 5.779,0.75 8.669,1.119 9.773,1.247 19.551,2.449 29.334,3.605 1.482,0.176 2.965,0.349 4.448,0.522 0.484,1.261 0.967,2.519 1.451,3.774 3.67,9.536 7.343,18.954 11.018,28.259 16.241,1.282 32.489,2.474 48.745,3.578 -2.528,-6.037 -4.04,-9.66 -4.507,-10.73 -0.009,-0.018 -0.017,-0.036 -0.025,-0.055 -0.008,-0.018 -0.015,-0.037 -0.023,-0.055 -1.913,-4.7 -4.705,-7.989 -8.533,-10.051 -7.068,-3.806 -14.134,-7.7 -21.196,-11.693 8.043,0.869 16.089,1.707 24.138,2.514 11.882,1.192 23.772,2.316 35.665,3.372 1.484,0.132 2.967,0.263 4.451,0.393 0.487,1.135 0.974,2.268 1.461,3.4 10.775,25.042 21.551,49.323 32.32,72.963 0.999,-0.237 1.997,-0.473 2.996,-0.71 1.835,-0.433 3.43,-1.284 4.873,-2.594 1.88,-1.693 3.946,-4.629 0.496,-11.129 -1.269,-2.13 -2.324,-4.089 -3.14,-5.823 -0.003,-0.008 -0.007,-0.017 -0.011,-0.026 -0.004,-0.01 -0.008,-0.019 -0.013,-0.028 -3.235,-7.144 -6.471,-14.345 -9.708,-21.608 -5.363,-12.018 -4.334,-20.712 3.064,-25.463 6.005,-3.837 16.616,-5.052 32.47,-3.987 15.416,1.029 30.839,1.944 46.266,2.748 15.32,0.798 27.089,3.042 35.973,6.907 10.441,4.583 18.247,12.004 23.221,22.125 3.241,6.564 6.48,13.099 9.717,19.61 5.278,10.773 4.189,18.59 -3.215,23.401 -0.029,0.019 -0.062,0.035 -0.09,0.054 3.976,-0.91 7.953,-1.818 11.931,-2.723 1.925,-0.439 3.591,-1.27 5.089,-2.543 1.084,-0.928 4.418,-3.764 -0.003,-10.765 -0.977,-1.48 -1.868,-3.03 -2.647,-4.604 -3.211,-6.464 -6.425,-12.948 -9.641,-19.459 -5.331,-10.765 -4.275,-18.64 3.159,-23.266 5.97,-3.726 16.574,-5.3 32.42,-5.002 15.511,0.288 31.023,0.46 46.535,0.52 14.278,0.054 25.541,1.941 33.47,5.725 5.426,2.587 10.274,6.775 14.823,12.819 1.533,2.039 3.066,4.079 4.599,6.12 -3.388,0.031 -6.779,0.058 -10.17,0.08 -25.413,0.173 -50.83,0.131 -76.244,-0.125 -4.02,-0.042 -5.683,0.357 -6.223,0.536 -0.079,0.537 -0.067,2.321 2.088,6.618 1.152,2.311 2.304,4.62 3.456,6.927 2.285,4.545 4.65,6.625 6.229,7.57 2.684,1.606 6.84,2.432 12.358,2.452 24.334,0.087 48.668,0.059 73,-0.083 1.645,-0.01 3.29,-0.02 4.934,-0.031 0.375,1.089 0.75,2.178 1.125,3.268 2.342,6.806 1.455,11.694 -2.703,14.915 -0.814,0.634 -1.762,1.218 -2.82,1.761 4.451,-1.103 8.904,-2.209 13.357,-3.321 1.963,-0.489 3.752,-1.335 5.475,-2.584 2.132,-1.535 4.277,-3.86 2.082,-8.299 -0.926,-1.871 -1.852,-3.742 -2.778,-5.611 0.016,0 0.032,-0.001 0.047,-0.001 -7.246,-14.514 -14.506,-28.962 -21.777,-43.382 -0.938,-1.86 -1.875,-3.718 -2.813,-5.578 2.911,-0.036 5.821,-0.076 8.731,-0.12 9.814,-0.149 19.631,-0.345 29.443,-0.586 1.487,-0.036 2.975,-0.073 4.461,-0.112 0.479,0.953 0.957,1.905 1.436,2.858 3.701,7.374 7.4,14.769 11.095,22.189 1.842,-0.039 3.684,-0.078 5.526,-0.119 9.367,-8.159 18.742,-16.43 28.125,-24.85 0.625,-0.562 1.252,-1.126 1.879,-1.69 0.99,-0.04 1.98,-0.082 2.972,-0.123 13.881,-0.585 27.758,-1.26 41.633,-2.028 4.463,-0.247 8.924,-0.503 13.387,-0.768 -2.887,2.644 -5.774,5.27 -8.658,7.879 -12.352,11.164 -24.696,22.009 -37.03,32.615 20.715,9.575 41.407,19.369 62.084,29.6 0.645,0.319 1.287,0.638 1.932,0.957 1.922,-0.53 3.844,-1.064 5.764,-1.599 1.964,-0.548 3.758,-1.479 5.484,-2.85 2.105,-1.674 4.252,-4.235 2.113,-9.031 -8.093,-17.65 -16.195,-34.97 -24.306,-52.016 -0.928,-1.948 -1.854,-3.892 -2.782,-5.833 2.907,-0.177 5.813,-0.358 8.719,-0.544 35.557,-2.267 71.083,-5.136 106.559,-8.606 1.483,-0.146 2.965,-0.291 4.447,-0.439 0.471,1.085 0.944,2.171 1.415,3.26 2.584,5.95 5.166,11.948 7.75,17.993 0.923,2.164 1.849,4.333 2.773,6.508 -2.898,0.212 -5.799,0.42 -8.699,0.626 -22.801,1.616 -45.615,3.058 -68.44,4.323 0.326,0.716 0.652,1.434 0.978,2.152 23.841,-1.282 47.669,-2.749 71.483,-4.402 1.481,-0.102 2.963,-0.206 4.444,-0.31 0.472,1.112 0.945,2.226 1.418,3.342 2.23,5.264 4.461,10.567 6.691,15.907 0.926,2.216 1.85,4.437 2.775,6.666 -2.9,0.129 -5.8,0.256 -8.703,0.381 -22.42,0.967 -44.849,1.834 -67.285,2.601 0.326,0.731 0.653,1.462 0.979,2.196 23.675,-0.767 47.343,-1.638 71.004,-2.613 1.48,-0.061 2.961,-0.123 4.441,-0.184 0.475,1.139 0.947,2.281 1.42,3.424 0.408,0.988 0.816,1.978 1.226,2.969 4.041,-11.561 8.083,-23.272 12.12,-35.138 -1.207,-2.918 -2.416,-5.825 -3.624,-8.719 -0.166,-0.346 -0.332,-0.691 -0.497,-1.036 -0.446,-0.932 -1,-2.216 -1.698,-3.925 -1.851,-4.552 -4.603,-7.425 -8.41,-8.799 -7.023,-2.538 -14.049,-5.026 -21.076,-7.47 8.049,-0.804 16.096,-1.64 24.139,-2.507 6.699,-0.723 13.396,-1.466 20.091,-2.231 2.071,-0.237 4.141,-0.475 6.211,-0.717 l 0,0.058 c 3.213,-0.373 6.428,-0.752 9.641,-1.135 1.471,-0.176 2.941,-0.352 4.412,-0.53 0.477,1.15 0.955,2.303 1.432,3.457 3.689,8.927 7.383,17.968 11.078,27.129 20.357,16.208 40.732,33.568 61.154,52.386 3.545,3.264 7.092,6.574 10.639,9.928 -5.016,0.077 -10.033,0.152 -15.051,0.226"
             style="fill:#ffffff;fill-opacity:1;fill-rule:nonzero;stroke:none"
             id="path30"
             inkscape:connector-curvature="0" />
        </g>
        <g
           id="g32"
           transform="translate(372.0683,580.4658)">
          <path
             d="m 0,0 c 3.943,9.122 7.885,18.142 11.828,27.063 9.805,0.135 19.611,0.263 29.418,0.383 C 30.173,3.066 19.094,-21.999 8.018,-47.887 c -11.894,-1.002 -23.783,-2.068 -35.666,-3.199 5.216,2.822 9.034,7.18 11.449,13.08 0.637,1.446 3.097,7.336 7.381,17.481 -20.639,-1.263 -41.268,-2.657 -61.884,-4.183 -4.159,-10.562 -8.314,-21.269 -12.466,-32.129 -9.784,-1.096 -19.563,-2.236 -29.338,-3.42 8.28,22.395 16.579,44.135 24.891,65.278 2.497,6.349 1.383,11.538 -3.35,15.75 -2.366,2.123 -4.983,3.617 -7.849,4.466 16.238,0.313 32.478,0.607 48.719,0.88 C -54.033,16.614 -57.97,6.993 -61.905,-2.754 -41.277,-1.747 -20.642,-0.829 0,0"
             style="fill:#100f0d;fill-opacity:1;fill-rule:nonzero;stroke:none"
             id="path34"
             inkscape:connector-curvature="0" />
        </g>
        <g
           id="g36"
           transform="translate(452.3794,569.4717)">
          <path
             d="m 0,0 c -2.46,-5.314 -3.089,-8.911 -1.889,-10.736 1.334,-2.055 5.303,-2.91 11.909,-2.598 12.289,0.576 24.582,1.099 36.877,1.568 6.608,0.252 11.58,1.448 14.919,3.588 2.976,1.907 5.691,5.396 8.144,10.451 1.181,2.416 2.361,4.829 3.542,7.236 2.223,4.556 2.688,7.789 1.395,9.722 -1.562,2.337 -5.889,3.458 -12.987,3.343 C 50.637,22.39 39.364,22.185 28.093,21.957 20.996,21.814 15.511,20.479 11.633,17.926 8.477,15.818 5.783,12.38 3.552,7.596 2.368,5.07 1.184,2.538 0,0 m -3.037,-31.782 c -14.068,-0.897 -23.468,0.082 -28.205,3.117 -5.499,3.539 -5.989,10.462 -1.477,20.525 3.236,7.228 6.473,14.396 9.708,21.507 0.774,1.639 1.774,3.483 3,5.528 3.546,6.598 3.087,11.825 -1.374,15.826 -2.186,1.983 -4.757,3.333 -7.715,4.042 35.188,0.409 70.382,0.726 105.579,0.953 14.05,0.088 23.428,-1.413 28.131,-4.459 5.509,-3.575 6.048,-9.85 1.61,-18.924 -3.239,-6.527 -6.479,-13.081 -9.722,-19.665 -4.49,-9.156 -11.289,-15.713 -20.393,-19.706 -7.841,-3.409 -18.806,-5.441 -32.881,-6.138 -15.426,-0.761 -30.846,-1.631 -46.261,-2.606"
             style="fill:#100f0d;fill-opacity:1;fill-rule:nonzero;stroke:none"
             id="path38"
             inkscape:connector-curvature="0" />
        </g>
        <g
           id="g40"
           transform="translate(690.7548,560.6133)">
          <path
             d="m 0,0 c -4.043,-5.377 -8.338,-9.146 -12.881,-11.319 -6.885,-3.292 -16.834,-4.915 -29.845,-4.962 -15.51,-0.057 -31.019,-0.221 -46.526,-0.493 -14.045,-0.25 -23.424,1.03 -28.139,3.979 -5.522,3.446 -6.038,9.728 -1.554,18.759 3.215,6.496 6.428,12.969 9.638,19.42 0.724,1.457 1.536,2.868 2.44,4.233 3.971,6.263 3.693,11.3 -0.83,15.164 -2.239,1.901 -4.884,3.201 -7.935,3.9 31.631,0.133 63.262,0.192 94.894,0.176 18.138,-0.008 29.5,-1.806 34.09,-5.37 2.695,-2.09 3.129,-5.798 1.298,-11.115 -24.328,0.125 -48.658,0.149 -72.987,0.073 -7.1,-0.022 -12.582,-1.192 -16.45,-3.509 -3.149,-1.885 -5.831,-5.026 -8.042,-9.426 -1.151,-2.309 -2.302,-4.619 -3.454,-6.931 -2.438,-4.873 -3.054,-8.181 -1.843,-9.914 1.298,-1.948 5.256,-2.873 11.869,-2.8 C -50.839,0.14 -25.418,0.185 0,0"
             style="fill:#100f0d;fill-opacity:1;fill-rule:nonzero;stroke:none"
             id="path42"
             inkscape:connector-curvature="0" />
        </g>
        <g
           id="g44"
           transform="translate(772.0849,584.6201)">
          <path
             d="M 0,0 C 16.344,7.905 32.67,15.922 48.986,24.163 62.318,24.056 75.652,23.935 88.982,23.803 66.434,12.607 43.865,1.933 21.27,-8.504 c 13.808,-11.793 27.63,-23.87 41.461,-36.342 -13.874,0.728 -27.749,1.369 -41.627,1.923 -10.008,9.005 -20.01,17.837 -30.002,26.54 -4.317,0.091 -8.633,0.176 -12.95,0.255 -4.173,-8.375 -8.351,-16.721 -12.535,-25.041 -9.81,0.228 -19.625,0.413 -29.437,0.555 8.205,16.279 16.394,32.603 24.568,49.028 -0.023,10e-4 -0.045,10e-4 -0.066,10e-4 2.455,4.97 1.295,9.191 -3.473,12.627 -2.385,1.732 -5.018,2.956 -7.889,3.672 16.276,-0.05 32.549,-0.119 48.825,-0.208 C -5.816,16.368 -9.781,8.271 -13.75,0.205 -9.166,0.142 -4.584,0.073 0,0"
             style="fill:#100f0d;fill-opacity:1;fill-rule:nonzero;stroke:none"
             id="path46"
             inkscape:connector-curvature="0" />
        </g>
        <g
           id="g48"
           transform="translate(915.6533,590.8086)">
          <path
             d="m 0,0 c -1.725,-3.866 -3.447,-7.714 -5.172,-11.545 25.342,-0.941 50.673,-2.025 75.993,-3.253 -2.231,-5.312 -4.461,-10.587 -6.692,-15.826 -25.294,1.623 -50.607,3.053 -75.932,4.289 -1.724,-3.788 -3.451,-7.56 -5.175,-11.316 25.734,-1.476 51.451,-3.192 77.15,-5.147 -2.582,-6.017 -5.166,-11.985 -7.75,-17.908 -35.476,3.291 -71.002,6.013 -106.555,8.164 8.112,17.102 16.213,34.488 24.309,52.213 2.388,5.365 1.213,9.99 -3.526,13.763 -2.392,1.903 -5.027,3.248 -7.904,4.043 C 0.154,17.035 41.555,16.465 82.944,15.768 80.446,9.665 77.95,3.612 75.452,-2.393 50.309,-1.492 25.159,-0.695 0,0"
             style="fill:#100f0d;fill-opacity:1;fill-rule:nonzero;stroke:none"
             id="path50"
             inkscape:connector-curvature="0" />
        </g>
        <g
           id="g52"
           transform="translate(1041.017,573.8476)">
          <path
             d="M 0,0 C 11.061,10.095 22.129,20.574 33.209,31.493 44.734,31.258 56.26,31.013 67.783,30.758 47.024,11.625 26.312,-6.01 5.617,-22.467 1.768,-31.968 -2.078,-41.34 -5.924,-50.59 c -5.283,0.599 -10.566,1.184 -15.851,1.756 l 0,-0.057 c -6.698,0.726 -13.395,1.431 -20.094,2.117 5.184,1.849 8.943,5.653 11.285,11.431 0.662,1.636 1.192,2.87 1.59,3.705 0.023,-0.003 0.045,-0.005 0.068,-0.006 1.59,3.825 3.182,7.669 4.772,11.536 -6.082,18.019 -12.172,35.678 -18.266,53.004 11.373,-0.19 22.744,-0.389 34.115,-0.598 C -5.871,21.638 -3.439,10.892 -1.01,0.056 -0.674,0.037 -0.338,0.019 0,0"
             style="fill:#100f0d;fill-opacity:1;fill-rule:nonzero;stroke:none"
             id="path54"
             inkscape:connector-curvature="0" />
        </g>
        <g
           id="g56"
           transform="translate(871.2568,647.7412)">
          <path
             d="M 0,0 16.777,49.124 37.139,42.113 0,0 Z m -493.736,55.945 15.273,-11.051 -10.934,-12.592 -4.339,23.643 z m 315.254,-36.747 c 0.927,2.709 1.707,3.896 1.988,4.27 0.365,0.148 1.359,0.402 3.131,0.402 l 18.871,0 -1.176,-3.411 c -0.834,-2.444 -1.51,-3.792 -1.9,-4.46 -0.42,-0.077 -1.114,-0.161 -2.155,-0.161 l -19.918,0 1.159,3.36 z M 120.258,-12 l -14.365,68.977 -2.18,10.462 -10.687,0.01 -50.983,0.049 -78.846,0.074 9.832,-3.386 -1.978,-5.787 -6.408,-18.778 -9.01,19.942 -3.483,7.714 -8.463,0.027 -46.728,0.145 -76.127,0.237 0.524,-0.188 -35.882,0 -80.993,0 0.145,-0.049 -26.052,0 -75.427,0 0.403,-0.145 -4.34,0 -19.505,0 -9.577,0 -38.939,0 -26.947,0 -0.063,0 -10.961,0 -23.121,0 -15.984,0 3.075,-15.687 13.496,-68.83 2.083,-10.626 10.826,0 26.024,0 5.95,0 3.929,4.471 55.231,62.823 -17.048,-49.884 -5.949,-17.41 18.398,0 76.522,0 3.902,0 5.502,0 12.895,0 21.185,0 9.418,0 3.036,8.915 3.059,8.983 14.096,0 -0.156,-0.451 -6.018,-17.447 18.455,0 21.186,0 9.432,0 3.027,8.935 3.291,9.708 c 1.361,-4.6 3.793,-7.924 6.278,-10.268 l 0.022,-0.02 0.023,-0.023 c 6.084,-5.684 15.378,-8.332 29.248,-8.332 l 33.184,0 c 12.527,0 22.361,2.131 30.06,6.511 l 0.024,0.013 0.021,0.012 c 1.61,0.924 3.137,1.963 4.598,3.102 l -3.248,-9.638 18.316,0 21.09,0 9.41,0 3.039,8.906 6.391,18.717 8.98,-19.882 3.497,-7.741 8.492,0 27.066,0 5.633,0 9.408,0 14.1,0 23.605,0 6.069,0 3.939,4.618 6.459,7.573 25.946,0 0.301,-1.545 2.068,-10.646 10.844,0 23.556,0 16.178,0 -3.299,15.839 z"
             style="fill:#100f0d;fill-opacity:1;fill-rule:nonzero;stroke:none"
             id="path58"
             inkscape:connector-curvature="0" />
        </g>
        <g
           id="g60"
           transform="translate(869.6161,638.5537)">
          <path
             d="m 0,0 -10.803,-12.251 1.391,4.07 23.508,68.831 1.304,3.827 25.567,-8.803 c 1.998,-0.69 3.664,-1.626 5.088,-2.864 0.099,-0.086 0.187,-0.167 0.263,-0.241 -0.119,-0.162 -0.273,-0.355 -0.47,-0.58 L 0,0 Z m -158.082,20.179 -26.459,0 c -0.057,0 -0.111,0 -0.164,0.001 0.184,0.683 0.434,1.51 0.769,2.498 l 2.51,7.286 c 1.481,4.322 2.846,5.892 3.387,6.382 1.504,1.287 4.262,1.558 6.316,1.558 l 24.282,0 c 0.478,0 0.892,-0.014 1.25,-0.038 -0.155,-0.648 -0.389,-1.473 -0.743,-2.503 l -2.509,-7.294 c -1.868,-5.465 -3.321,-6.762 -3.379,-6.815 -0.604,-0.522 -2.299,-1.075 -5.26,-1.075 m -126.51,17.822 24.757,0 c -0.306,-0.061 -0.78,-0.119 -1.47,-0.119 l -23.328,0 0.041,0.119 z m 401.747,-41.803 -14.367,68.978 -1.375,6.608 -6.75,0.006 -50.983,0.049 -49.799,0.047 0.699,-0.242 -9.437,0 -5.944,0 -1.92,-5.623 -10.369,-30.377 -14.053,31.113 -2.199,4.871 -5.346,0.016 -46.728,0.146 -48.08,0.149 0.281,-0.1 -63.671,0 -51.154,0 0.146,-0.049 -55.891,0 -47.64,0 0.404,-0.146 -42.843,0 -8.79,0 -9.577,0 -38.083,0 -0.856,0 -25.657,0 20.786,-15.04 c 0.137,-0.098 0.551,-0.397 0.992,-1.329 0.231,-0.481 0.529,-1.101 -0.858,-2.923 l -18.797,-21.65 -6.264,34.134 -1.251,6.808 -6.922,0 -23.121,0 -10.096,0 1.942,-9.907 13.496,-68.831 1.317,-6.71 6.837,0 26.023,0 3.758,0 2.483,2.822 59.079,67.203 1.957,-0.703 c 0.831,-0.298 1.628,-0.86 2.437,-1.714 0.903,-0.955 1.574,-1.981 0.628,-4.84 l -17.693,-51.773 -3.757,-10.995 11.62,0 76.522,0 5.939,0 1.922,5.619 5.66,16.543 3.762,10.998 -0.871,0 0.01,0.029 4.886,14.268 3.766,11.001 -0.39,0 0.01,0.029 3.832,11.191 0.586,-0.211 c 0.83,-0.298 1.628,-0.86 2.439,-1.716 0.726,-0.767 1.634,-1.727 0.583,-4.822 l -3.727,-10.979 0.024,0 -13.995,-40.955 -3.757,-10.995 11.619,0 21.186,0 5.948,0 1.917,5.63 4.178,12.268 24.366,0 -2.373,-6.88 -3.803,-11.018 11.657,0 21.186,0 5.958,0 1.911,5.642 3.967,11.706 c 2.192,6.421 2.507,11.68 0.939,15.973 0.884,0.7 1.714,1.452 2.488,2.254 3.213,3.344 5.8,7.965 7.927,14.143 l 1.499,4.353 c 2.192,6.425 2.883,11.817 2.091,16.333 l 2.853,-0.952 c 0.391,-0.13 0.997,-0.412 1.756,-1.339 l 0.015,-0.019 0.016,-0.021 c 0.458,-0.552 1.666,-2.014 -0.183,-6.703 -0.93,-2.075 -1.706,-3.99 -2.308,-5.691 l -0.017,-0.047 -0.015,-0.047 -6.869,-20.171 c -4.322,-12.659 -3.204,-22.203 3.325,-28.361 l 0.014,-0.013 0.014,-0.013 c 5.131,-4.794 13.374,-7.027 25.94,-7.027 l 33.183,0 c 11.667,0 20.717,1.922 27.665,5.877 8.314,4.774 14.464,12.902 18.314,24.174 l 6.914,20.161 0.006,0.018 0.004,0.017 c 2.648,7.838 3.217,14.476 1.719,19.857 l 1.769,-0.637 c 0.805,-0.289 1.568,-0.831 2.336,-1.657 l 0.039,-0.042 0.039,-0.042 c 0.737,-0.77 1.651,-1.728 0.61,-4.798 l -17.516,-51.965 -3.695,-10.963 11.568,0 21.09,0 5.943,0 1.92,5.625 10.35,30.316 14.023,-31.052 2.209,-4.889 5.363,0 32.7,0 5.103,0 0.838,0 17.566,0 23.606,0 3.832,0 2.488,2.916 7.912,9.273 32.175,0 1.062,-5.465 1.309,-6.724 6.847,0 23.557,0 10.219,0 -2.084,10.002 z"
             style="fill:#f25423;fill-opacity:1;fill-rule:nonzero;stroke:none"
             id="path62"
             inkscape:connector-curvature="0" />
        </g>
        <g
           id="g64"
           transform="translate(681.7509,662.5752)">
          <path
             d="m 0,0 2.512,7.295 c 1.666,4.866 3.412,7.121 4.584,8.159 1.957,1.706 5.008,2.583 9.047,2.583 l 24.281,0 c 4.1,0 5.412,-0.889 5.572,-1.231 0.029,-0.063 0.672,-1.542 -1.135,-6.812 L 42.35,2.696 c -1.957,-5.73 -3.717,-7.852 -4.592,-8.607 -1.6,-1.385 -4.283,-2.087 -7.975,-2.087 l -26.459,0 c -3.34,0 -4.527,0.597 -4.808,0.775 C -1.56,-6.778 -1.685,-4.934 0,0 m -99.691,18.134 30.072,0 c 1.921,0 3.068,-0.142 3.716,-0.272 -0.058,-0.332 -0.171,-0.8 -0.387,-1.427 l -0.007,-0.021 -0.007,-0.019 -0.765,-2.297 c -0.57,-1.636 -1.302,-2.822 -2.118,-3.43 -0.911,-0.629 -2.38,-0.962 -4.252,-0.962 l -29.15,0 2.898,8.428 z M 73.895,37.741 c -4.227,3.985 -11.774,5.921 -23.071,5.921 l -75.844,0 -25.577,0 0.81,-0.269 c -1.366,0.142 -2.812,0.221 -4.353,0.221 l -77.78,0 -23.819,0 0.405,-0.145 -75.455,0 -0.394,0 -9.183,0 -14.253,0 -24.686,0 -12.828,0 10.393,-7.52 c 0.95,-0.687 1.705,-1.64 2.309,-2.914 0.767,-1.6 1.29,-3.862 -1.391,-7.334 l -24.543,-28.267 -7.825,42.63 -0.624,3.405 -3.462,0 -23.121,0 -5.047,0 0.971,-4.953 13.496,-68.832 0.657,-3.355 3.419,0 26.024,0 1.879,0 1.241,1.412 60.511,68.83 0.434,0.494 4.617,-1.66 c 1.457,-0.523 2.782,-1.429 4.049,-2.768 2.328,-2.461 2.805,-5.247 1.543,-9.035 l -17.694,-51.775 -1.879,-5.498 5.81,0 76.522,0 2.97,0 0.961,2.81 5.659,16.542 1.882,5.5 -5.812,0 -49.621,0 0.931,2.719 51.592,0 2.968,0 0.962,2.809 4.885,14.268 1.884,5.502 -5.814,0 -48.798,0 0.93,2.719 51.254,0 2.969,0 0.962,2.809 5.198,15.182 4.556,-1.639 c 1.456,-0.524 2.782,-1.429 4.049,-2.768 2.321,-2.453 2.784,-5.234 1.501,-9.014 l -1.863,-5.489 0.036,0 -15.873,-46.452 -1.879,-5.498 5.81,0 21.185,0 2.975,0 0.958,2.816 5.136,15.082 30.306,0 c 1.201,0 1.93,-0.117 2.339,-0.219 -0.025,-0.599 -0.192,-1.799 -0.908,-3.929 l -2.843,-8.241 -1.901,-5.509 5.828,0 21.186,0 2.979,0 0.955,2.821 3.967,11.706 c 2.198,6.434 2.262,11.303 0.194,14.877 l -0.015,0.025 -0.013,0.023 c -0.217,0.364 -0.458,0.711 -0.723,1.044 1.872,1.076 3.519,2.347 4.931,3.81 2.778,2.892 5.061,7.014 6.986,12.61 l 1.5,4.354 c 2.705,7.924 2.904,13.873 0.613,18.195 -0.893,1.67 -2.137,3.071 -3.719,4.209 l 13.293,-4.436 c 1.381,-0.461 2.578,-1.328 3.66,-2.653 1.411,-1.708 2.971,-4.68 0.457,-10.985 -0.9,-2.006 -1.647,-3.843 -2.219,-5.462 l -0.009,-0.024 -0.008,-0.023 -6.868,-20.171 c -3.75,-10.982 -2.996,-19.059 2.243,-23.999 4.269,-3.988 11.826,-5.921 23.117,-5.921 l 33.184,0 c 10.926,0 19.303,1.744 25.609,5.333 7.399,4.249 12.924,11.616 16.438,21.906 l 6.916,20.165 c 3.716,10.999 2.943,19.073 -2.289,24.008"
             style="fill:#ffffff;fill-opacity:1;fill-rule:nonzero;stroke:none"
             id="path66"
             inkscape:connector-curvature="0" />
        </g>
        <g
           id="g68"
           transform="translate(881.6572,706.0439)">
          <path
             d="m 0,0 -5.809,0 -21.089,0 -2.971,0 -0.961,-2.813 -13.764,-40.317 -18.375,40.686 -1.101,2.436 -2.672,0.008 -46.727,0.146 -24.041,0.075 22.621,-8.14 c 1.444,-0.519 2.745,-1.415 3.973,-2.739 l 0.02,-0.02 0.021,-0.021 c 2.342,-2.453 2.816,-5.23 1.537,-9.001 l -17.514,-51.958 -1.847,-5.482 5.785,0 21.09,0 2.972,0 0.959,2.813 13.745,40.256 18.347,-40.624 1.104,-2.445 2.681,0 32.7,0 2.97,0 0.959,2.813 23.51,68.83 L 0,0 Z"
             style="fill:#ffffff;fill-opacity:1;fill-rule:nonzero;stroke:none"
             id="path70"
             inkscape:connector-curvature="0" />
        </g>
        <g
           id="g72"
           transform="translate(931.8549,664.3008)">
          <path
             d="M 0,0 10.674,12.439 12.998,0 0,0 Z m 50.848,-30.396 -14.365,68.977 -0.688,3.306 -3.375,0.002 -50.983,0.048 -24.9,0.023 23.543,-8.106 c 2.478,-0.853 4.654,-2.083 6.463,-3.657 0.871,-0.76 1.934,-1.915 2.008,-3.038 0.08,-1.222 -0.945,-2.664 -1.82,-3.66 l -45.852,-51.994 -6.088,-6.901 9.203,0 23.605,0 1.916,0 1.244,1.457 9.157,10.732 37.514,0 1.717,-8.827 0.654,-3.362 3.424,0 23.556,0 5.11,0 -1.043,5 z"
             style="fill:#ffffff;fill-opacity:1;fill-rule:nonzero;stroke:none"
             id="path74"
             inkscape:connector-curvature="0" />
        </g>
        <g
           id="g76"
           transform="translate(402.4462,701.8896)">
          <path
             d="m 0,0 38.939,0 -60.512,-68.831 -26.023,0 L -61.092,0 l 23.121,0 9.384,-51.128 30.28,34.876 c 3.128,3.998 3.773,7.916 1.935,11.754 C 2.725,-2.596 1.515,-1.097 0,0"
             style="fill:#100f0d;fill-opacity:1;fill-rule:nonzero;stroke:none"
             id="path78"
             inkscape:connector-curvature="0" />
        </g>
        <g
           id="g80"
           transform="translate(480.5166,685.9267)">
          <path
             d="m 0,0 -3.773,-11.027 54.61,0 -4.885,-14.27 -54.562,0 -3.773,-11.028 55.433,0 -5.66,-16.543 -76.521,0 17.703,51.805 c 1.741,5.224 0.919,9.626 -2.467,13.205 -1.71,1.805 -3.597,3.079 -5.66,3.821 l 89.244,0 L 54.223,0 0,0 Z"
             style="fill:#100f0d;fill-opacity:1;fill-rule:nonzero;stroke:none"
             id="path82"
             inkscape:connector-curvature="0" />
        </g>
        <g
           id="g84"
           transform="translate(619.3877,677.6562)">
          <path
             d="m 0,0 c 1,2.902 0.886,4.868 -0.338,5.901 -1.064,0.872 -3.37,1.306 -6.917,1.306 l -33.037,0 -5.756,-16.735 34.972,0 c 2.805,0 5.03,0.579 6.675,1.741 1.548,1.128 2.756,2.95 3.628,5.465 L 0,0 Z m 8.223,24.379 c 7.707,0 12.561,-1.87 14.56,-5.611 1.71,-3.225 1.419,-8.192 -0.87,-14.898 l -1.5,-4.354 C 18.704,-5.45 16.688,-9.142 14.366,-11.56 11.625,-14.398 7.771,-16.366 2.806,-17.462 l -0.097,-0.193 c 3.482,-0.678 5.772,-1.935 6.87,-3.774 1.417,-2.45 1.239,-6.271 -0.533,-11.464 l -3.967,-11.705 -21.186,0 2.853,8.272 c 1.226,3.643 1.452,6.159 0.678,7.546 -0.774,1.386 -2.79,2.08 -6.046,2.08 l -33.279,0 -6.096,-17.898 -21.185,0 17.752,51.951 -0.049,0 c 1.773,5.223 0.968,9.626 -2.418,13.205 -1.71,1.805 -3.596,3.079 -5.66,3.821 l 77.78,0 z"
             style="fill:#100f0d;fill-opacity:1;fill-rule:nonzero;stroke:none"
             id="path86"
             inkscape:connector-curvature="0" />
        </g>
        <g
           id="g88"
           transform="translate(677.8193,663.9189)">
          <path
             d="m 0,0 c -1.74,-5.096 -2.176,-8.56 -1.305,-10.399 0.967,-2.065 3.821,-3.096 8.561,-3.096 l 26.459,0 c 4.74,0 8.303,1.031 10.689,3.096 2.129,1.839 4.065,5.303 5.805,10.399 l 2.516,7.304 c 1.58,4.611 1.902,7.916 0.966,9.916 -1.128,2.419 -4.24,3.628 -9.335,3.628 l -24.282,0 c -5.095,0 -9.029,-1.209 -11.803,-3.628 -2.255,-2 -4.177,-5.305 -5.755,-9.916 L 0,0 Z m -2.031,-30.86 c -10.094,0 -16.85,1.596 -20.268,4.789 -3.965,3.74 -4.353,10.286 -1.159,19.637 l 6.869,20.171 c 0.545,1.548 1.256,3.289 2.127,5.224 2.514,6.257 2.16,11.335 -1.065,15.236 -1.58,1.936 -3.434,3.257 -5.562,3.967 l 75.845,0 c 10.092,0 16.834,-1.596 20.219,-4.788 3.966,-3.741 4.369,-10.287 1.209,-19.639 L 69.268,-6.434 C 66.074,-15.785 61.219,-22.331 54.707,-26.071 49.098,-29.264 41.244,-30.86 31.152,-30.86 l -33.183,0 z"
             style="fill:#100f0d;fill-opacity:1;fill-rule:nonzero;stroke:none"
             id="path90"
             inkscape:connector-curvature="0" />
        </g>
        <g
           id="g92"
           transform="translate(796.9072,683.0742)">
          <path
             d="m 0,0 -17.074,-50.016 -21.09,0 17.51,51.951 c 1.773,5.223 0.951,9.625 -2.467,13.205 -1.678,1.805 -3.547,3.079 -5.611,3.821 l 46.728,-0.146 22.586,-50.014 0.195,0 17.075,50.014 21.089,0 -23.507,-68.831 -32.7,0 L 0.146,0 0,0 Z"
             style="fill:#100f0d;fill-opacity:1;fill-rule:nonzero;stroke:none"
             id="path94"
             inkscape:connector-curvature="0" />
        </g>
        <g
           id="g96"
           transform="translate(949.8549,660.1465)">
          <path
             d="M 0,0 -4.836,25.878 -27.039,0 0,0 Z m 28.781,-27.088 -23.556,0 -2.369,12.19 -42.856,0 -10.401,-12.19 -23.605,0 45.856,51.998 c 3.998,4.547 3.804,8.738 -0.58,12.577 -2.225,1.934 -4.839,3.417 -7.837,4.45 l 50.983,-0.048 14.365,-68.977 z"
             style="fill:#100f0d;fill-opacity:1;fill-rule:nonzero;stroke:none"
             id="path98"
             inkscape:connector-curvature="0" />
        </g>
      </g>
    </g>
  </g>
</svg>
