<?xml version="1.0" encoding="UTF-8" standalone="no"?>
<!-- Created with Inkscape (http://www.inkscape.org/) -->

<svg
   xmlns:dc="http://purl.org/dc/elements/1.1/"
   xmlns:cc="http://creativecommons.org/ns#"
   xmlns:rdf="http://www.w3.org/1999/02/22-rdf-syntax-ns#"
   xmlns:svg="http://www.w3.org/2000/svg"
   xmlns="http://www.w3.org/2000/svg"
   xmlns:sodipodi="http://sodipodi.sourceforge.net/DTD/sodipodi-0.dtd"
   xmlns:inkscape="http://www.inkscape.org/namespaces/inkscape"
   width="210mm"
   height="297mm"
   viewBox="0 0 744.09448819 1052.3622047"
   id="svg2"
   version="1.1"
   inkscape:version="0.91 r13725"
   sodipodi:docname="paw-sticks.svg">
  <defs
     id="defs4">
    <clipPath
       clipPathUnits="userSpaceOnUse"
       id="clipPath172">
      <path
         d="m 0,782.042 1293.075,0 L 1293.075,0 0,0 0,782.042 Z"
         id="path174"
         inkscape:connector-curvature="0" />
    </clipPath>
  </defs>
  <sodipodi:namedview
     id="base"
     pagecolor="#ffffff"
     bordercolor="#666666"
     borderopacity="1.0"
     inkscape:pageopacity="0.0"
     inkscape:pageshadow="2"
     inkscape:zoom="0.35"
     inkscape:cx="335"
     inkscape:cy="520"
     inkscape:document-units="px"
     inkscape:current-layer="layer1"
     showgrid="false"
     inkscape:window-width="1276"
     inkscape:window-height="755"
     inkscape:window-x="4"
     inkscape:window-y="1"
     inkscape:window-maximized="1" />
  <metadata
     id="metadata7">
    <rdf:RDF>
      <cc:Work
         rdf:about="">
        <dc:format>image/svg+xml</dc:format>
        <dc:type
           rdf:resource="http://purl.org/dc/dcmitype/StillImage" />
        <dc:title></dc:title>
      </cc:Work>
    </rdf:RDF>
  </metadata>
  <g
     inkscape:label="Layer 1"
     inkscape:groupmode="layer"
     id="layer1">
    <g
       transform="matrix(1.25,0,0,-1.25,-721.46619,854.91798)"
       id="g168">
      <g
         id="g170"
         clip-path="url(#clipPath172)">
        <g
           id="g176"
           transform="translate(1067.7933,153.0278)">
          <path
             d="m 0,0 c 0,0 -34.404,0.653 -58.792,3.919 -24.388,3.267 -45.292,10.452 -45.292,10.452 0,0 18.944,-12.194 49.647,-14.371 C -23.735,-2.177 0,0 0,0"
             style="fill:#ffffff;fill-opacity:1;fill-rule:nonzero;stroke:none"
             id="path178"
             inkscape:connector-curvature="0" />
        </g>
        <g
           id="g180"
           transform="translate(694.5534,145.6242)">
          <path
             d="m 0,0 c 0,0 23.735,-2.177 54.437,0 30.703,2.178 49.647,14.371 49.647,14.371 0,0 -20.904,-7.185 -45.292,-10.452 C 34.404,0.653 0,0 0,0"
             style="fill:#ffffff;fill-opacity:1;fill-rule:nonzero;stroke:none"
             id="path182"
             inkscape:connector-curvature="0" />
        </g>
        <g
           id="g184"
           transform="translate(963.7095,167.3992)">
          <path
             d="m 0,0 c 0,0 20.904,-7.186 45.292,-10.452 24.388,-3.266 58.792,-3.919 58.792,-3.919 0,0 -23.735,-2.178 -54.437,0 C 18.944,-12.194 0,0 0,0 M -43.465,22.773 C -49.208,16.607 -56.938,13.719 -64.436,11.516 -71.595,9.412 -78.714,7.674 -85.023,6.492 -90.316,5.501 -95.103,5.006 -99.557,5.006 c -4.055,0 -7.833,0.41 -11.469,1.229 -3.125,0.701 -6.307,1.785 -9.725,3.315 -3.979,1.782 -7.641,3.892 -10.76,5.729 -10.797,6.368 -21.878,14.372 -31.417,21.375 -7.511,5.518 -16.02,12.486 -22.197,22.329 -6.737,10.736 -9.626,23.017 -8.832,37.549 0.335,6.108 1.225,11.101 2.723,15.266 1.517,4.219 3.655,7.577 6.384,10.042 -6.365,4.036 -10.494,9.837 -11.749,11.755 -5.03,7.688 -8.115,18.9 -7.859,28.564 0.282,10.316 3.283,19.232 9.177,27.26 4.761,6.487 10.438,11.134 15.928,15.628 l 1.011,0.784 c 0.301,0.244 0.602,0.471 0.902,0.695 0.224,0.168 0.448,0.333 0.671,0.517 5.536,4.577 11.109,8.93 18.365,11.833 3.102,1.242 7.022,1.905 11.985,2.024 4.142,0.076 10.406,-1.88 11.105,-2.105 l 0.441,-0.169 c 3.66,-1.639 6.702,-3.888 9.11,-6.728 2.353,9.782 4.946,17.23 10.153,23.742 6.964,8.703 18.837,17.586 28.874,21.605 2.636,1.052 6.618,1.577 9.228,1.708 3.926,0.203 7.676,-0.723 11.144,-2.723 4.019,-1.901 7.537,-4.172 10.459,-6.753 l 0.639,-0.561 c 3.637,-3.18 9.132,-7.985 9.25,-16.039 0.114,-6.474 -3.435,-11.649 -6.286,-15.806 -0.477,-0.697 -1.573,-2.298 -1.854,-2.854 -0.157,-0.432 -0.294,-0.892 -0.412,-1.373 0.678,0.583 1.377,1.131 2.101,1.643 4.573,3.258 9.745,4.851 14.309,6.256 2.667,0.823 5.399,1.665 7.777,2.76 1.442,0.665 2.961,1.608 4.57,2.608 3.507,2.179 7.869,4.889 13.541,5.91 l 0.194,0.032 c 1.256,0.201 2.33,0.132 2.968,0.064 2.342,0.089 5.728,-0.171 9.208,-1.73 0.176,-0.08 0.345,-0.158 0.515,-0.24 6.959,-3.381 13.014,-10.737 16.211,-19.687 3.417,-9.563 3.382,-19.812 -0.098,-28.859 -1.515,-3.933 -3.789,-7.529 -5.989,-11.007 -1.583,-2.507 -3.222,-5.098 -4.272,-7.4 -0.789,-1.726 -1.543,-3.563 -2.34,-5.508 l -0.036,-0.087 c -0.944,-2.298 -1.901,-4.627 -2.962,-6.913 1.081,0.353 2.039,0.719 2.763,1.126 0.016,0.014 0.234,0.182 0.423,0.389 1.397,1.522 5.097,5.554 11.71,5.977 3.102,0.198 6.353,-0.772 9.916,-2.979 6.889,-3.029 11.684,-7.326 13.877,-12.44 3.042,-7.063 2.483,-13.753 1.835,-21.5 l -0.271,-3.346 c -0.327,-4.209 -0.666,-8.57 -2.2,-12.543 C 36.411,98.211 31.414,93.372 27.399,89.484 L 27.17,89.262 C 24.277,86.462 21.545,83.818 20.555,81.154 20.466,80.916 20.253,80.135 20.024,78.945 19.7,77.254 19.248,75.611 18.68,74.068 l -0.126,-0.32 C 16.076,68.154 11.216,62.749 3.698,57.227 c -5.117,-3.75 -10.644,-7.536 -16.417,-9.846 -6.274,-2.515 -12.333,-2.503 -18.005,0.036 -0.918,0.411 -1.811,0.882 -2.68,1.413 0.057,-1.939 0.031,-3.697 -0.088,-5.097 -0.863,-10.189 -7.262,-18.053 -9.973,-20.96 m -171.254,-44.548 c -30.703,-2.177 -54.437,0 -54.437,0 0,0 34.404,0.653 58.792,3.919 24.388,3.267 45.292,10.452 45.292,10.452 0,0 -18.944,-12.193 -49.647,-14.371 m 320.545,9.581 c -6.75,1.96 -29.832,2.178 -52.26,3.048 -22.428,0.871 -48.558,8.71 -59.445,13.719 -10.888,5.008 -22.864,20.25 -22.864,20.25 0,0 -1.237,1.778 -3.495,5.021 0.975,1.93 1.859,4.054 2.557,6.342 0.481,1.577 0.88,3.224 1.141,4.947 5.71,-1.47 11.771,-1.006 17.763,1.396 6.312,2.526 12.171,6.53 17.568,10.487 8.273,6.075 13.683,12.165 16.541,18.616 l 0.271,0.681 c 0.658,1.796 1.18,3.697 1.553,5.645 0.148,0.77 0.276,1.269 0.327,1.451 0.631,1.558 3.12,3.967 5.321,6.097 l 0.23,0.223 c 4.383,4.244 9.837,9.526 13.023,17.758 1.81,4.687 2.179,9.436 2.535,14.014 l 0.269,3.322 c 0.677,8.093 1.315,15.736 -2.24,23.996 -2.687,6.266 -8.297,11.447 -16.244,15.015 -4.403,2.664 -8.564,3.827 -12.686,3.559 -1.252,-0.08 -2.426,-0.259 -3.522,-0.512 0.86,1.554 1.937,3.257 2.987,4.92 2.226,3.519 4.748,7.509 6.45,11.924 3.928,10.213 3.978,21.753 0.142,32.493 -0.676,1.89 -1.459,3.708 -2.334,5.445 24.775,35.284 43.034,61.259 43.714,62.144 2.178,2.831 -1.088,6.532 -3.701,8.057 -2.613,1.524 -5.226,1.742 -6.968,0 -0.521,-0.521 -17.613,-24.915 -41.316,-58.854 -2.52,2.42 -5.297,4.406 -8.262,5.846 -0.21,0.102 -0.419,0.198 -0.644,0.3 -4.207,1.885 -8.278,2.256 -11.174,2.195 -0.887,0.075 -2.249,0.121 -3.83,-0.116 l -0.43,-0.07 c -6.655,-1.199 -11.691,-4.329 -15.371,-6.615 -1.531,-0.951 -2.853,-1.772 -3.998,-2.299 -2.064,-0.95 -4.513,-1.706 -7.131,-2.513 -0.771,-0.237 -1.558,-0.48 -2.357,-0.734 0.81,2.412 1.314,5.058 1.263,7.949 -0.151,10.38 -7.231,16.571 -11.035,19.897 l -0.619,0.543 c -3.244,2.866 -7.11,5.378 -11.497,7.472 -4.298,2.436 -8.942,3.542 -13.829,3.308 -1.089,-0.055 -6.737,-0.413 -10.908,-2.076 -10.789,-4.32 -23.541,-13.857 -31.013,-23.194 -4.175,-5.222 -6.853,-11.022 -8.945,-17.687 -1.285,0.805 -2.653,1.531 -4.101,2.18 l -0.474,0.212 -0.495,0.16 c -1.802,0.582 -8.059,2.469 -12.837,2.356 -5.597,-0.134 -10.113,-0.918 -13.802,-2.396 -1.867,-0.747 -3.62,-1.577 -5.29,-2.467 -29.037,41.601 -51.299,73.411 -51.895,74.006 -1.742,1.742 -4.355,1.524 -6.968,0 -2.613,-1.524 -5.879,-5.226 -3.702,-8.057 0.751,-0.976 22.886,-32.474 51.567,-73.329 -1.165,-0.921 -2.315,-1.859 -3.461,-2.807 -0.157,-0.129 -0.317,-0.245 -0.474,-0.362 -0.335,-0.251 -0.669,-0.503 -1.004,-0.773 l -1.09,-0.848 c -5.474,-4.48 -11.679,-9.559 -16.831,-16.579 -6.544,-8.915 -9.876,-18.795 -10.189,-30.214 -0.286,-10.821 3.051,-22.915 8.711,-31.565 1.352,-2.067 4.235,-6.034 8.542,-9.754 -1.391,-2.043 -2.67,-4.488 -3.722,-7.414 -1.671,-4.648 -2.66,-10.126 -3.023,-16.748 -0.855,-15.646 2.293,-28.931 9.623,-40.612 5.297,-8.44 12.076,-14.829 18.615,-20.019 1.664,-1.32 3.312,-2.566 4.916,-3.745 8.149,-5.981 17.417,-12.68 26.736,-18.533 -4.227,-4.811 -12.329,-13.252 -19.908,-16.739 -10.888,-5.008 -37.017,-12.847 -59.445,-13.718 -22.429,-0.871 -45.51,-1.089 -52.26,-3.048 -4.808,-1.396 -7.736,-10.855 -8.867,-18.622 -0.457,-3.138 -0.622,-6.001 -0.496,-7.944 0.435,-6.75 9.581,-6.75 18.508,-6.315 7.929,0.387 58.102,7.987 83.57,14.259 3.21,0.79 6.03,1.559 8.32,2.29 20.469,6.533 20.251,11.977 29.832,25.913 4.31,6.268 8.573,12.445 11.962,17.348 1.645,-0.875 3.373,-1.741 5.183,-2.552 3.74,-1.674 7.247,-2.867 10.712,-3.644 4.019,-0.905 8.173,-1.357 12.612,-1.357 4.778,0 9.884,0.525 15.501,1.577 6.478,1.213 13.775,2.993 21.098,5.146 7.716,2.267 16.466,5.524 23.054,12.436 3.622,-5.235 9.206,-13.316 14.868,-21.551 9.581,-13.936 9.363,-19.38 29.831,-25.912 9.347,-2.983 27.455,-6.601 45.226,-9.694 21.146,-3.681 41.813,-6.618 46.664,-6.855 8.928,-0.436 18.074,-0.436 18.509,6.315 0.011,0.171 0.018,0.354 0.025,0.54 0.252,7.111 -2.809,24.115 -9.388,26.025"
             style="fill:#231f20;fill-opacity:1;fill-rule:nonzero;stroke:none"
             id="path186"
             inkscape:connector-curvature="0" />
        </g>
        <g
           id="g188"
           transform="translate(898.0459,183.0936)">
          <path
             d="m 0,0 c -7.029,-2.067 -14.001,-3.768 -20.162,-4.922 -9.508,-1.78 -17.214,-1.872 -24.244,-0.289 -2.841,0.637 -5.753,1.632 -8.902,3.042 -3.776,1.69 -7.31,3.728 -10.329,5.506 -10.612,6.259 -21.591,14.189 -31.05,21.133 -7.179,5.274 -15.297,11.91 -21.086,21.134 -6.243,9.947 -8.915,21.394 -8.172,34.996 0.312,5.683 1.121,10.272 2.472,14.03 1.877,5.215 4.807,8.785 8.708,10.611 1.522,0.713 3.232,1.062 5.058,1.248 -1.981,0.19 -3.985,0.731 -5.999,1.633 -7.378,3.303 -12.263,10.143 -13.586,12.163 -4.576,6.996 -7.383,17.221 -7.149,26.064 0.257,9.405 2.984,17.51 8.334,24.799 4.472,6.095 9.983,10.584 15.311,14.945 l 0.818,0.626 c 0.549,0.45 1.097,0.819 1.643,1.27 5.103,4.219 10.384,8.416 17.213,11.15 3.027,1.213 6.848,1.625 10.471,1.713 3.531,0.085 9.662,-1.896 9.662,-1.896 6.189,-2.77 10.32,-7.53 12.197,-14.93 0.39,1.549 0.809,3.03 1.205,4.484 0.532,1.944 1.03,3.75 1.464,5.589 2.299,9.79 4.699,17.025 9.578,23.127 6.514,8.14 17.902,16.603 27.091,20.282 1.988,0.793 5.417,1.28 7.83,1.402 2.97,0.147 5.943,-0.492 8.896,-2.234 l 0.001,0 c 3.719,-1.742 6.955,-3.819 9.602,-6.157 3.302,-2.919 8.322,-6.864 8.417,-13.4 0.09,-5.094 -2.891,-9.444 -5.522,-13.281 -0.86,-1.255 -2.037,-2.973 -2.313,-3.715 -1.459,-3.908 -1.507,-9.046 -1.384,-13.073 0.036,-1.113 0.123,-2.298 0.228,-3.533 2.275,4.639 5.263,8.776 9.417,11.726 4.002,2.85 8.612,4.271 13.069,5.644 2.786,0.859 5.668,1.747 8.316,2.966 1.692,0.78 3.324,1.793 5.051,2.866 3.357,2.086 7.162,4.448 12.011,5.322 l 0.016,0.003 0.015,0.002 c 0.954,0.166 1.756,0.066 2.188,0.014 0.005,-0.002 0.011,-0.003 0.016,-0.003 1.622,0.089 4.587,0.003 7.583,-1.339 0.136,-0.061 0.271,-0.124 0.407,-0.189 5.943,-2.887 11.176,-9.328 13.999,-17.228 3.065,-8.581 3.044,-17.754 -0.062,-25.83 -1.359,-3.526 -3.518,-6.943 -5.605,-10.244 -1.662,-2.629 -3.381,-5.35 -4.553,-7.92 -0.832,-1.819 -1.611,-3.72 -2.433,-5.724 -2.326,-5.662 -4.713,-11.478 -8.481,-16.051 1.054,0.364 2.105,0.692 3.146,1.031 1.236,0.4 2.446,0.703 3.617,1.051 2.905,0.863 5.645,1.569 7.672,2.708 0.348,0.197 0.958,0.651 1.501,1.245 1.728,1.882 4.324,4.286 8.775,4.57 2.329,0.153 4.861,-0.754 7.601,-2.496 l 0.001,0 c 4.05,-1.742 9.624,-4.952 11.914,-10.299 2.649,-6.15 2.09,-12.293 1.469,-19.731 -0.042,-0.514 -0.086,-1.035 -0.129,-1.559 -0.041,-0.504 -0.079,-1 -0.118,-1.489 -0.317,-4.084 -0.617,-7.942 -1.921,-11.318 C 98.338,84.93 93.866,80.63 89.938,76.826 86.634,73.627 83.489,70.615 82.136,66.977 81.888,66.31 81.614,65.13 81.411,64.073 81.135,62.629 80.74,61.185 80.243,59.838 l -0.004,-0.01 -0.004,-0.01 C 77.664,54.012 72.181,49.008 66.783,45.043 62.514,41.913 56.977,37.991 51.326,35.729 46.187,33.67 41.272,33.66 36.719,35.698 c -4.107,1.84 -7.317,5.061 -9.943,8.792 0.9,-5.302 1.384,-12.248 1.056,-16.081 C 27.083,19.567 21.412,12.621 19.013,10.047 13.985,4.651 6.904,2.028 0,0 m 32.171,28.038 c 0.12,1.4 0.146,3.158 0.088,5.098 0.87,-0.531 1.763,-1.002 2.681,-1.413 5.672,-2.539 11.73,-2.551 18.005,-0.037 5.772,2.31 11.3,6.096 16.416,9.847 7.519,5.522 12.378,10.926 14.856,16.52 l 0.127,0.32 c 0.568,1.544 1.02,3.187 1.344,4.877 0.229,1.19 0.442,1.972 0.53,2.21 0.991,2.664 3.723,5.308 6.615,8.107 l 0.229,0.222 c 4.016,3.888 9.013,8.727 11.783,15.887 1.535,3.973 1.874,8.334 2.201,12.543 l 0.271,3.345 c 0.648,7.747 1.206,14.438 -1.835,21.5 -2.194,5.115 -6.988,9.411 -13.878,12.44 -3.563,2.207 -6.814,3.178 -9.916,2.98 -6.612,-0.424 -10.312,-4.456 -11.709,-5.977 -0.19,-0.208 -0.407,-0.375 -0.423,-0.389 -0.724,-0.407 -1.682,-0.773 -2.764,-1.126 1.061,2.285 2.018,4.614 2.962,6.913 l 0.036,0.086 c 0.798,1.946 1.552,3.783 2.341,5.509 1.05,2.301 2.688,4.893 4.272,7.4 2.199,3.478 4.474,7.074 5.988,11.007 3.48,9.047 3.515,19.295 0.099,28.859 -3.197,8.949 -9.252,16.306 -16.211,19.687 -0.17,0.082 -0.339,0.16 -0.516,0.239 -3.479,1.559 -6.866,1.82 -9.208,1.731 -0.637,0.067 -1.711,0.137 -2.968,-0.065 l -0.194,-0.031 c -5.672,-1.022 -10.033,-3.731 -13.541,-5.911 -1.608,-0.999 -3.127,-1.942 -4.57,-2.608 -2.378,-1.094 -5.109,-1.936 -7.777,-2.759 -4.564,-1.405 -9.736,-2.998 -14.309,-6.256 -0.723,-0.513 -1.423,-1.061 -2.101,-1.643 0.119,0.48 0.256,0.94 0.413,1.373 0.281,0.556 1.377,2.157 1.854,2.853 2.851,4.158 6.399,9.333 6.285,15.807 -0.117,8.054 -5.613,12.859 -9.249,16.038 l -0.64,0.562 c -2.921,2.58 -6.439,4.852 -10.458,6.752 -3.468,2.001 -7.218,2.926 -11.144,2.724 -2.611,-0.131 -6.593,-0.657 -9.229,-1.708 -10.036,-4.019 -21.909,-12.903 -28.874,-21.606 -5.206,-6.512 -7.799,-13.959 -10.152,-23.741 -2.408,2.84 -5.45,5.089 -9.11,6.727 l -0.441,0.169 c -0.699,0.226 -6.963,2.181 -11.105,2.106 -4.963,-0.119 -8.884,-0.782 -11.986,-2.025 -7.255,-2.903 -12.828,-7.255 -18.365,-11.832 -0.223,-0.184 -0.447,-0.35 -0.67,-0.517 -0.301,-0.225 -0.601,-0.451 -0.902,-0.695 l -1.011,-0.785 c -5.491,-4.493 -11.168,-9.14 -15.929,-15.627 -5.893,-8.029 -8.895,-16.945 -9.177,-27.261 -0.255,-9.664 2.829,-20.875 7.859,-28.564 1.256,-1.918 5.385,-7.719 11.75,-11.755 -2.729,-2.464 -4.867,-5.823 -6.385,-10.042 -1.497,-4.164 -2.387,-9.158 -2.722,-15.266 -0.794,-14.531 2.094,-26.813 8.832,-37.549 6.177,-9.843 14.686,-16.811 22.196,-22.328 9.539,-7.003 20.621,-15.007 31.417,-21.375 3.12,-1.838 6.781,-3.947 10.761,-5.729 3.418,-1.53 6.6,-2.615 9.725,-3.316 3.635,-0.818 7.414,-1.228 11.468,-1.228 4.455,0 9.241,0.494 14.534,1.486 6.309,1.181 13.428,2.919 20.588,5.024 7.498,2.203 15.228,5.091 20.97,11.256 2.711,2.907 9.11,10.772 9.973,20.96"
             style="fill:#ffffff;fill-opacity:1;fill-rule:nonzero;stroke:none"
             id="path190"
             inkscape:connector-curvature="0" />
        </g>
        <g
           id="g192"
           transform="translate(896.6258,188.9427)">
          <path
             d="m 0,0 c -6.511,-1.914 -13.44,-3.636 -19.666,-4.801 -7.711,-1.446 -15.042,-1.944 -22.219,-0.327 -6.453,1.447 -12.528,4.887 -17.733,7.953 -10.325,6.09 -21.031,13.811 -30.594,20.83 -15.085,11.086 -28.275,24.11 -26.82,50.731 0.497,9.043 2.48,16.926 7.843,19.436 3.572,1.674 11.474,0.356 15.862,1.886 5.188,1.804 7.309,8.014 11.964,10.27 4.55,2.213 12.359,1.55 18.13,3.332 5.875,1.811 10.924,7.142 16.401,10.08 3.83,2.056 8.796,3.14 13.485,4.556 4.704,1.426 9.18,4.397 13.744,4.802 5.212,0.466 9.364,-3.029 14.356,-5.756 3.146,-1.712 10.865,-4.842 11.304,-8.19 0.24,-1.831 -1.243,-3.89 -1.448,-6.1 C 3.91,101.186 6.155,93.801 7.741,85.708 9.455,76.931 8.937,66.778 11.508,59.862 14.542,51.692 20.56,47.911 22.387,39.615 23.461,34.736 24.081,26.722 23.775,23.123 23.245,16.88 19.246,11.38 16.59,8.532 12.55,4.195 6.394,1.878 0,0 m -121.406,117.979 c -3.583,5.474 -6.326,14.408 -6.115,22.35 0.505,18.451 11.937,27.317 22.249,35.77 5.446,4.465 10.697,9.132 17.446,11.833 2.517,1.01 5.702,1.611 8.7,1.682 11.019,0.267 16.889,-7.86 17.326,-19.238 0.334,-8.801 -1.618,-17.467 -2.927,-26.844 -1.296,-9.261 -3.202,-18.436 -6.727,-22.568 -5.306,-6.226 -14.947,-4.639 -21.981,-7.527 -3.46,-1.42 -5.363,-5.772 -8.87,-6.556 -8.074,-1.798 -15.802,6.058 -19.101,11.098 m 72.035,68.815 c 2.129,9.068 4.264,15.546 8.383,20.698 5.604,7.003 16.196,15.244 24.847,18.707 1.41,0.564 4.27,1.178 6.214,1.276 5.84,0.291 10.627,-3.37 14.806,-7.063 2.763,-2.442 6.279,-5.574 6.332,-9.259 0.085,-4.806 -5.978,-10.689 -7.424,-14.578 -1.744,-4.669 -1.958,-10.162 -1.794,-15.589 0.193,-5.985 1.615,-12.933 0.332,-18.51 -1.631,-7.058 -6.662,-12.576 -11.204,-16.723 -5.176,-4.722 -10.562,-8.585 -17.131,-9.792 -5.94,-1.092 -12.022,0.966 -16.644,3.797 -6.667,4.081 -10.967,12.77 -11.316,21.804 -0.36,9.419 2.706,17.191 4.599,25.232 m 69.5,-2.483 c 5.598,3.989 13.301,4.786 20.52,8.108 5.474,2.523 9.723,6.7 15.825,7.798 0.426,0.073 0.921,-0.105 1.476,-0.064 1.233,0.083 3.491,0.031 5.638,-1.012 9.301,-4.518 16.599,-20.839 11.093,-35.154 -2.152,-5.583 -7.152,-11.544 -10.009,-17.804 -3.971,-8.697 -6.774,-18.918 -13.681,-23.81 -3.78,-2.68 -8.876,-4.052 -13.27,-5.334 -6.718,-1.972 -15.278,-4.056 -22.225,-0.588 -8.024,4.001 -13.278,12.731 -12.23,23.902 0.557,5.921 2.487,12.602 4.134,19.081 2.666,10.505 5.844,19.988 12.729,24.877 m 43.25,-67.351 c 4.423,1.435 8.779,2.394 12.255,4.351 2.883,1.631 4.252,5.57 8.103,5.815 4.757,0.31 12.193,-4.613 14.218,-9.343 2.156,-5.007 1.421,-11.498 0.806,-19.041 C 98.41,94.414 98.228,90.584 97.141,87.768 93.229,77.661 82.191,73.301 78.507,63.399 77.678,61.169 77.423,57.957 76.776,56.283 74.937,51.579 69.165,47.077 65.239,44.193 60.582,40.778 55.618,37.471 50.865,35.569 38.196,30.494 31.529,42.924 27.721,50.944 c -2.416,5.095 -3.918,11.034 -6.059,16.957 -0.698,1.94 -1.729,3.799 -2.023,5.483 -2.064,11.943 2.913,23.523 8.656,28.391 5.617,4.75 14.536,7.748 22.846,10.83 4.007,1.488 8.208,3.045 12.238,4.355 M 29.252,22.56 c 0.328,3.833 -0.155,10.779 -1.056,16.081 2.627,-3.731 5.836,-6.952 9.943,-8.792 4.554,-2.038 9.468,-2.028 14.608,0.031 5.65,2.262 11.187,6.184 15.456,9.314 5.398,3.964 10.881,8.969 13.452,14.775 l 0.004,0.01 0.004,0.01 c 0.498,1.347 0.892,2.791 1.168,4.235 0.203,1.057 0.477,2.237 0.725,2.904 1.353,3.638 4.498,6.65 7.803,9.849 3.927,3.803 8.399,8.104 10.844,14.419 1.304,3.376 1.604,7.234 1.921,11.318 0.039,0.489 0.077,0.985 0.119,1.489 0.042,0.524 0.086,1.044 0.128,1.559 0.621,7.438 1.18,13.581 -1.469,19.731 -2.29,5.347 -7.864,8.557 -11.914,10.299 l -0.001,0 c -2.74,1.742 -5.272,2.649 -7.6,2.496 -4.452,-0.284 -7.048,-2.689 -8.776,-4.571 -0.543,-0.594 -1.152,-1.047 -1.501,-1.244 -2.027,-1.14 -4.767,-1.845 -7.672,-2.708 -1.171,-0.348 -2.38,-0.651 -3.617,-1.051 -1.041,-0.339 -2.092,-0.667 -3.146,-1.031 3.768,4.573 6.155,10.389 8.481,16.051 0.823,2.004 1.601,3.905 2.433,5.724 1.172,2.57 2.892,5.291 4.553,7.919 2.087,3.302 4.246,6.719 5.605,10.245 3.106,8.076 3.127,17.249 0.062,25.83 -2.823,7.9 -8.056,14.341 -13.999,17.227 -0.136,0.066 -0.271,0.129 -0.407,0.19 -2.996,1.342 -5.961,1.428 -7.583,1.339 -0.005,0 -0.011,0.001 -0.016,0.003 -0.432,0.052 -1.234,0.152 -2.188,-0.015 l -0.015,-0.002 -0.015,-0.002 c -4.849,-0.874 -8.655,-3.236 -12.012,-5.322 -1.727,-1.073 -3.359,-2.087 -5.051,-2.867 -2.648,-1.218 -5.53,-2.106 -8.316,-2.965 -4.457,-1.373 -9.067,-2.794 -13.069,-5.644 -4.154,-2.95 -7.142,-7.087 -9.417,-11.726 -0.105,1.235 -0.192,2.42 -0.228,3.533 -0.122,4.027 -0.075,9.165 1.384,13.073 0.276,0.742 1.453,2.46 2.313,3.715 2.631,3.837 5.612,8.187 5.523,13.281 -0.096,6.536 -5.116,10.481 -8.418,13.4 -2.647,2.338 -5.883,4.415 -9.602,6.157 l -0.001,0 c -2.952,1.742 -5.926,2.381 -8.896,2.234 -2.413,-0.122 -5.841,-0.609 -7.83,-1.402 -9.189,-3.68 -20.577,-12.142 -27.091,-20.282 -4.879,-6.102 -7.279,-13.337 -9.578,-23.127 -0.434,-1.84 -0.932,-3.645 -1.464,-5.589 -0.396,-1.454 -0.815,-2.935 -1.205,-4.484 -1.877,7.4 -6.008,12.16 -12.196,14.93 0,0 -6.131,1.981 -9.663,1.896 -3.623,-0.088 -7.444,-0.5 -10.471,-1.714 -6.829,-2.733 -12.11,-6.931 -17.213,-11.149 -0.546,-0.451 -1.094,-0.82 -1.643,-1.27 l -0.818,-0.626 c -5.328,-4.361 -10.838,-8.85 -15.311,-14.945 -5.35,-7.289 -8.077,-15.394 -8.334,-24.799 -0.234,-8.843 2.573,-19.069 7.149,-26.064 1.323,-2.02 6.208,-8.86 13.586,-12.163 2.014,-0.902 4.019,-1.443 5.999,-1.633 -1.826,-0.186 -3.536,-0.535 -5.058,-1.248 -3.901,-1.826 -6.831,-5.396 -8.707,-10.611 -1.352,-3.758 -2.161,-8.347 -2.473,-14.03 -0.743,-13.602 1.929,-25.049 8.172,-34.996 5.789,-9.224 13.907,-15.86 21.086,-21.134 9.459,-6.945 20.439,-14.874 31.05,-21.133 3.019,-1.778 6.553,-3.816 10.329,-5.506 3.149,-1.41 6.061,-2.405 8.903,-3.042 7.029,-1.584 14.735,-1.492 24.243,0.289 6.161,1.154 13.133,2.855 20.162,4.922 6.904,2.028 13.986,4.651 19.013,10.047 2.4,2.574 8.07,9.52 8.819,18.362"
             style="fill:#100f0d;fill-opacity:1;fill-rule:nonzero;stroke:none"
             id="path194"
             inkscape:connector-curvature="0" />
        </g>
        <g
           id="g196"
           transform="translate(853.9719,328.7009)">
          <path
             d="m 0,0 c 4.622,-2.831 10.704,-4.889 16.644,-3.797 6.569,1.207 11.955,5.069 17.131,9.792 4.542,4.146 9.573,9.665 11.204,16.723 1.282,5.577 -0.139,12.525 -0.332,18.51 -0.164,5.427 0.05,10.92 1.794,15.589 1.446,3.889 7.508,9.772 7.424,14.577 -0.053,3.685 -3.569,6.818 -6.333,9.26 -4.178,3.693 -8.965,7.354 -14.805,7.063 C 30.783,87.618 27.923,87.005 26.513,86.441 17.861,82.978 7.27,74.737 1.666,67.734 -2.453,62.582 -4.588,56.104 -6.717,47.036 -8.61,38.995 -11.676,31.223 -11.316,21.804 -10.967,12.77 -6.667,4.081 0,0"
             style="fill:#f25323;fill-opacity:1;fill-rule:nonzero;stroke:none"
             id="path198"
             inkscape:connector-curvature="0" />
        </g>
        <g
           id="g200"
           transform="translate(899.8914,329.2954)">
          <path
             d="m 0,0 c -1.047,-11.171 4.206,-19.9 12.23,-23.901 6.948,-3.468 15.507,-1.385 22.226,0.587 4.394,1.283 9.49,2.654 13.269,5.335 6.907,4.891 9.71,15.112 13.681,23.809 2.857,6.261 7.858,12.222 10.009,17.804 5.506,14.315 -1.791,30.636 -11.092,35.154 -2.148,1.043 -4.406,1.096 -5.638,1.012 -0.556,-0.041 -1.05,0.137 -1.477,0.064 C 47.106,58.766 42.857,54.59 37.383,52.067 30.165,48.745 22.461,47.947 16.863,43.959 9.978,39.069 6.8,29.587 4.134,19.082 2.487,12.603 0.558,5.921 0,0"
             style="fill:#f25323;fill-opacity:1;fill-rule:nonzero;stroke:none"
             id="path202"
             inkscape:connector-curvature="0" />
        </g>
        <g
           id="g204"
           transform="translate(794.3211,295.8232)">
          <path
             d="m 0,0 c 3.507,0.785 5.41,5.136 8.87,6.557 7.033,2.888 16.675,1.3 21.981,7.527 3.524,4.131 5.43,13.306 6.727,22.568 1.308,9.376 3.261,18.043 2.926,26.844 C 40.068,74.873 34.198,83 23.179,82.734 20.181,82.662 16.996,82.061 14.478,81.052 7.73,78.35 2.479,73.684 -2.967,69.218 c -10.312,-8.453 -21.744,-17.319 -22.25,-35.77 -0.21,-7.942 2.533,-16.876 6.116,-22.35 C -15.802,6.058 -8.074,-1.797 0,0"
             style="fill:#f25323;fill-opacity:1;fill-rule:nonzero;stroke:none"
             id="path206"
             inkscape:connector-curvature="0" />
        </g>
        <g
           id="g208"
           transform="translate(924.9203,290.7179)">
          <path
             d="m 0,0 c -5.742,-4.868 -10.72,-16.448 -8.656,-28.391 0.295,-1.684 1.325,-3.543 2.023,-5.484 2.141,-5.922 3.644,-11.861 6.06,-16.956 3.808,-8.02 10.474,-20.45 23.143,-15.375 4.753,1.902 9.718,5.209 14.374,8.624 3.926,2.883 9.698,7.386 11.537,12.09 0.648,1.674 0.902,4.886 1.731,7.116 3.685,9.902 14.722,14.262 18.634,24.368 1.087,2.817 1.27,6.646 1.621,10.975 0.614,7.543 1.349,14.034 -0.806,19.041 -2.026,4.729 -9.462,9.652 -14.218,9.343 C 51.591,25.105 50.222,21.167 47.34,19.535 43.863,17.579 39.508,16.62 35.084,15.185 31.054,13.874 26.854,12.317 22.847,10.83 14.537,7.748 5.618,4.75 0,0"
             style="fill:#f25323;fill-opacity:1;fill-rule:nonzero;stroke:none"
             id="path210"
             inkscape:connector-curvature="0" />
        </g>
        <g
           id="g212"
           transform="translate(920.4005,212.0657)">
          <path
             d="m 0,0 c 0.306,3.599 -0.314,11.613 -1.388,16.492 -1.826,8.296 -7.845,12.077 -10.879,20.247 -2.57,6.916 -2.053,17.069 -3.767,25.846 -1.586,8.093 -3.831,15.478 -3.132,22.994 0.206,2.21 1.689,4.269 1.448,6.1 -0.439,3.348 -8.158,6.478 -11.304,8.19 -4.992,2.727 -9.144,6.222 -14.356,5.756 -4.563,-0.405 -9.039,-3.376 -13.743,-4.802 -4.69,-1.416 -9.656,-2.5 -13.485,-4.556 -5.478,-2.938 -10.527,-8.269 -16.402,-10.08 -5.77,-1.782 -13.58,-1.119 -18.13,-3.332 -4.655,-2.256 -6.775,-8.466 -11.964,-10.27 -4.387,-1.53 -12.29,-0.212 -15.862,-1.886 -5.363,-2.51 -7.346,-10.393 -7.843,-19.436 -1.455,-26.621 11.735,-39.645 26.821,-50.731 9.563,-7.019 20.268,-14.74 30.593,-20.83 5.205,-3.066 11.28,-6.506 17.733,-7.953 7.178,-1.618 14.508,-1.119 22.219,0.327 6.226,1.165 13.156,2.887 19.666,4.801 6.394,1.878 12.55,4.195 16.591,8.532 C -4.529,-11.743 -0.53,-6.243 0,0"
             style="fill:#f25323;fill-opacity:1;fill-rule:nonzero;stroke:none"
             id="path214"
             inkscape:connector-curvature="0" />
        </g>
        <g
           id="g216"
           transform="translate(701.3223,83.1101)">
          <path
             d="M 0,0 1.127,0 -2.714,-15.294 -6.596,0 l 1.169,0 0,10.342 -14.028,0 0,-10.342 2.797,0 6.346,-25.142 -1.503,0 0,-10.342 18.495,0 0,10.342 -1.795,0 6.387,25.142 3.131,0 0,10.342 L 0,10.342 0,0 Z"
             style="fill:#ffffff;fill-opacity:1;fill-rule:nonzero;stroke:none"
             id="path218"
             inkscape:connector-curvature="0" />
        </g>
        <g
           id="g220"
           transform="translate(717.4788,83.1101)">
          <path
             d="m 0,0 2.087,0 0,-25.142 -2.087,0 0,-10.342 25.592,0 0,12.158 -7.849,0 0,-1.816 -6.095,0 0,7.427 1.419,0 0,-1.815 7.807,0 0,13.918 -7.807,0 0,-1.76 -1.419,0 0,7.372 6.095,0 0,-1.761 7.849,0 0,12.103 L 0,10.342 0,0 Z"
             style="fill:#ffffff;fill-opacity:1;fill-rule:nonzero;stroke:none"
             id="path222"
             inkscape:connector-curvature="0" />
        </g>
        <g
           id="g224"
           transform="translate(762.9428,77.9815)">
          <path
             d="m 0,0 -1.127,-1.473 -4.76,0 0,6.602 4.76,0 L 0,3.655 0,0 Z m 9.56,-9.56 -2.296,2.97 2.296,3.018 0,11.689 -5.552,7.354 -21.542,0 0,-10.342 2.087,0 0,-25.142 -2.087,0 0,-10.343 13.735,0 0,10.343 -2.088,0 0,8.197 4.76,0 1.127,-1.486 0,-17.054 11.648,0 0,10.343 -2.088,0 0,10.453 z"
             style="fill:#ffffff;fill-opacity:1;fill-rule:nonzero;stroke:none"
             id="path226"
             inkscape:connector-curvature="0" />
        </g>
        <g
           id="g228"
           transform="translate(793.7533,59.3957)">
          <path
             d="m 0,0 -1.086,-1.427 -5.093,0 -1.127,1.427 0,22.232 1.127,1.482 5.093,0 L 0,22.232 0,0 Z m -11.314,34.057 -5.552,-7.363 0,-31.155 5.552,-7.309 15.322,0 5.552,7.309 0,31.155 -5.552,7.363 -15.322,0 z"
             style="fill:#ffffff;fill-opacity:1;fill-rule:nonzero;stroke:none"
             id="path230"
             inkscape:connector-curvature="0" />
        </g>
        <g
           id="g232"
           transform="translate(824.6464,83.1101)">
          <path
             d="m 0,0 2.088,0 0,-10.673 -9.561,21.015 -11.314,0 0,-10.342 2.087,0 0,-25.142 -2.087,0 0,-10.342 13.736,0 0,10.342 -2.088,0 0,10.178 9.352,-20.52 11.522,0 0,10.342 -2.087,0 0,25.142 2.087,0 0,10.342 L 0,10.342 0,0 Z"
             style="fill:#ffffff;fill-opacity:1;fill-rule:nonzero;stroke:none"
             id="path234"
             inkscape:connector-curvature="0" />
        </g>
        <g
           id="g236"
           transform="translate(855.8323,68.8061)">
          <path
             d="M 0,0 2.213,7.262 4.425,0 0,0 Z m 9.853,14.304 1.753,0 0,10.342 -18.494,0 0,-10.342 1.503,0 -7.641,-25.142 -2.087,0 0,-10.342 13.318,0 0,10.342 -1.127,0 0.542,2.036 9.227,0 0.501,-2.036 -1.127,0 0,-10.342 13.359,0 0,10.342 -2.087,0 -7.64,25.142 z"
             style="fill:#ffffff;fill-opacity:1;fill-rule:nonzero;stroke:none"
             id="path238"
             inkscape:connector-curvature="0" />
        </g>
        <g
           id="g240"
           transform="translate(906.5143,83.1101)">
          <path
             d="m 0,0 2.088,0 0,-6.272 -6.805,0 0,6.272 2.087,0 0,10.342 -13.735,0 0,-10.342 2.087,0 0,-25.142 -2.087,0 0,-10.342 13.735,0 0,10.342 -2.087,0 0,7.592 6.805,0 0,-7.592 -2.088,0 0,-10.342 13.736,0 0,10.342 -2.088,0 0,25.142 2.088,0 0,10.342 L 0,10.342 0,0 Z"
             style="fill:#ffffff;fill-opacity:1;fill-rule:nonzero;stroke:none"
             id="path242"
             inkscape:connector-curvature="0" />
        </g>
        <g
           id="g244"
           transform="translate(939.4957,59.3957)">
          <path
             d="m 0,0 -1.086,-1.427 -5.093,0 -1.127,1.427 0,22.232 1.127,1.482 5.093,0 L 0,22.232 0,0 Z m -11.314,34.057 -5.552,-7.363 0,-31.155 5.552,-7.309 15.322,0 5.552,7.309 0,31.155 -5.552,7.363 -15.322,0 z"
             style="fill:#ffffff;fill-opacity:1;fill-rule:nonzero;stroke:none"
             id="path246"
             inkscape:connector-curvature="0" />
        </g>
        <g
           id="g248"
           transform="translate(957.1544,93.4525)">
          <path
             d="m 0,0 -5.552,-7.363 0,-31.155 5.552,-7.309 15.322,0 5.552,7.317 0,9.958 -9.56,0 0,-5.502 -1.085,-1.43 -5.094,0 -1.127,1.427 0,22.232 1.127,1.483 5.094,0 1.085,-1.475 0,-5.788 9.56,0 0,10.257 L 15.322,0 0,0 Z"
             style="fill:#ffffff;fill-opacity:1;fill-rule:nonzero;stroke:none"
             id="path250"
             inkscape:connector-curvature="0" />
        </g>
        <g
           id="g252"
           transform="translate(996.2727,83.1101)">
          <path
             d="m 0,0 0.918,0 -4.968,-6.492 0,6.492 2.088,0 0,10.342 -13.736,0 0,-10.342 2.088,0 0,-25.142 -2.088,0 0,-10.342 13.736,0 0,10.342 -2.088,0 0,2.201 1.628,2.201 3.382,-4.402 -0.96,0 0,-10.342 16.532,0 0,10.342 -2.629,0 -9.687,12.708 9.436,12.434 2.88,0 0,10.342 L 0,10.342 0,0 Z"
             style="fill:#ffffff;fill-opacity:1;fill-rule:nonzero;stroke:none"
             id="path254"
             inkscape:connector-curvature="0" />
        </g>
        <g
           id="g256"
           transform="translate(1014.4326,83.1101)">
          <path
             d="m 0,0 2.088,0 0,-25.142 -2.088,0 0,-10.342 25.593,0 0,12.158 -7.849,0 0,-1.816 -6.096,0 0,7.427 1.419,0 0,-1.815 7.808,0 0,13.918 -7.808,0 0,-1.76 -1.419,0 0,7.372 6.096,0 0,-1.761 7.849,0 0,12.103 L 0,10.342 0,0 Z"
             style="fill:#ffffff;fill-opacity:1;fill-rule:nonzero;stroke:none"
             id="path258"
             inkscape:connector-curvature="0" />
        </g>
        <g
           id="g260"
           transform="translate(1064.4476,83.1101)">
          <path
             d="M 0,0 1.419,0 -2.755,-5.502 -6.93,0 l 1.419,0 0,10.342 -16.574,0 0,-10.342 3.256,0 11.314,-14.822 0,-10.32 -2.129,0 0,-10.342 13.735,0 0,10.342 -2.087,0 0,10.298 L 13.276,0 l 2.755,0 0,10.342 L 0,10.342 0,0 Z"
             style="fill:#ffffff;fill-opacity:1;fill-rule:nonzero;stroke:none"
             id="path262"
             inkscape:connector-curvature="0" />
        </g>
      </g>
    </g>
  </g>
</svg>
