<?xml version="1.0" encoding="UTF-8" standalone="no"?>
<!-- Created with Inkscape (http://www.inkscape.org/) -->

<svg
   xmlns:dc="http://purl.org/dc/elements/1.1/"
   xmlns:cc="http://creativecommons.org/ns#"
   xmlns:rdf="http://www.w3.org/1999/02/22-rdf-syntax-ns#"
   xmlns:svg="http://www.w3.org/2000/svg"
   xmlns="http://www.w3.org/2000/svg"
   xmlns:sodipodi="http://sodipodi.sourceforge.net/DTD/sodipodi-0.dtd"
   xmlns:inkscape="http://www.inkscape.org/namespaces/inkscape"
   width="210mm"
   height="297mm"
   viewBox="0 0 744.09448819 1052.3622047"
   id="svg3574"
   version="1.1"
   inkscape:version="0.91 r13725"
   sodipodi:docname="paw.svg">
  <defs
     id="defs3576">
    <clipPath
       clipPathUnits="userSpaceOnUse"
       id="clipPath104">
      <path
         d="m 0,782.042 1293.075,0 L 1293.075,0 0,0 0,782.042 Z"
         id="path106"
         inkscape:connector-curvature="0" />
    </clipPath>
  </defs>
  <sodipodi:namedview
     id="base"
     pagecolor="#ffffff"
     bordercolor="#666666"
     borderopacity="1.0"
     inkscape:pageopacity="0.0"
     inkscape:pageshadow="2"
     inkscape:zoom="0.49497475"
     inkscape:cx="453.37374"
     inkscape:cy="573.27396"
     inkscape:document-units="px"
     inkscape:current-layer="layer1"
     showgrid="false"
     inkscape:window-width="1276"
     inkscape:window-height="755"
     inkscape:window-x="4"
     inkscape:window-y="1"
     inkscape:window-maximized="1" />
  <metadata
     id="metadata3579">
    <rdf:RDF>
      <cc:Work
         rdf:about="">
        <dc:format>image/svg+xml</dc:format>
        <dc:type
           rdf:resource="http://purl.org/dc/dcmitype/StillImage" />
        <dc:title></dc:title>
      </cc:Work>
    </rdf:RDF>
  </metadata>
  <g
     inkscape:label="Layer 1"
     inkscape:groupmode="layer"
     id="layer1">
    <g
       transform="matrix(1.25,0,0,-1.25,90.111397,870.02639)"
       id="g100">
      <g
         id="g102"
         clip-path="url(#clipPath104)">
        <g
           id="g108"
           transform="translate(398.9951,265.541)">
          <path
             d="m 0,0 c -1.309,-2.779 -3.072,-5.159 -5.687,-6.832 -1.454,-0.925 -1.656,-0.836 -2.055,0.819 -0.636,2.671 -1.29,5.325 -1.853,8.013 -0.254,1.127 -0.582,1.109 -1.381,0.455 -1.744,-1.437 -1.762,-1.399 -2.4,0.744 -0.49,1.635 -0.999,3.252 -1.362,4.908 -0.108,0.454 0.037,1.251 0.345,1.453 3.015,1.98 5.235,4.743 7.415,7.505 2.235,2.817 4.324,5.759 6.487,8.631 0.307,0.399 0.691,0.728 1.055,1.09 C 0.744,26.333 1.053,25.897 1.108,25.44 1.688,21.298 2.214,17.154 2.577,14.521 2.325,8.541 1.925,4.127 0,0 m -263.652,127.62 c 0.163,3.053 1.108,5.888 2.544,8.559 2.234,4.161 5.433,7.522 9.031,10.503 4.96,4.107 10.503,7.305 16.391,9.904 0.382,0.164 0.818,0.164 1.234,0.236 -0.144,-0.344 -0.27,-0.709 -0.488,-1.016 -3.908,-5.452 -5.362,-11.687 -5.725,-18.246 -0.127,-2.343 -0.018,-4.705 0.036,-7.069 0.054,-1.743 0.091,-1.725 -1.763,-1.816 -3.724,-0.201 -7.432,-0.437 -11.156,-0.636 -0.892,-0.038 -1.618,-0.183 -2.035,-1.145 -0.146,-0.346 -0.8,-0.599 -1.255,-0.636 -0.963,-0.092 -1.963,-0.036 -2.943,-0.036 -0.855,0 -1.69,0.036 -2.545,0 -1.035,-0.074 -1.381,0.398 -1.326,1.398 m 118.715,38.997 c 2.325,3.18 5.052,5.996 8.215,8.341 6.303,4.688 13.447,6.868 21.805,6.996 1,-0.091 2.562,-0.219 4.125,-0.382 0.291,-0.037 0.561,-0.235 0.853,-0.363 -0.125,-0.255 -0.199,-0.601 -0.399,-0.782 -5.67,-4.906 -8.813,-11.411 -11.558,-18.171 -0.199,-0.491 -0.436,-0.963 -0.561,-1.471 -0.203,-0.692 -0.62,-0.892 -1.128,-0.4 -1.291,1.272 -2.708,2.488 -3.726,3.961 -0.654,0.926 -1.271,1.434 -2.326,1.417 -3.47,-0.035 -6.942,-0.091 -10.394,-0.163 -1.436,-0.038 -2.871,-0.183 -4.306,-0.237 -0.366,-0.019 -0.711,0.146 -1.074,0.219 0.146,0.344 0.256,0.727 0.474,1.035 m 100.579,-49.209 c 1.473,1.891 3.034,3.834 3.962,5.996 2.034,4.87 3.706,9.886 5.523,14.847 0.163,0.436 0.257,0.872 0.402,1.308 0.489,1.672 0.671,1.763 1.978,0.528 1.182,-1.128 2.31,-2.326 3.254,-3.634 2.254,-3.163 3.344,-6.78 3.87,-10.578 0.345,-2.579 0.455,-5.195 0.744,-8.594 -0.451,-3.58 -1.017,-7.905 -1.56,-12.248 -0.165,-1.236 -0.709,-1.944 -2.09,-2.072 -1.545,-0.145 -3.092,-0.508 -4.617,-0.816 -0.674,-0.146 -1.108,-0.056 -1.362,0.671 -1.853,5.362 -5.724,9.104 -9.994,12.557 -1.199,0.963 -1.036,0.835 -0.11,2.035 M 10.029,27.132 C 9.14,33.564 7.285,39.726 4.469,45.595 4.289,45.975 3.997,46.284 3.76,46.629 3.524,46.284 3.254,45.939 3.053,45.557 -0.184,39.687 -3.835,34.11 -8.543,29.294 c -4.087,-4.161 -8.594,-7.596 -14.537,-8.685 -2.997,-0.527 -3.161,-0.381 -2.234,2.525 3.543,11.139 6.761,22.368 8.976,33.853 1.11,5.779 1.945,11.613 1.527,17.537 -0.035,0.508 -0.072,0.998 -0.128,1.506 -0.164,1.255 -0.727,1.71 -2.071,1.419 -3.088,-0.709 -3.142,-0.654 -2.615,2.344 2.141,12.139 3.141,24.349 2.615,36.651 -0.452,10.45 -2.034,20.662 -6.869,30.112 -2.742,5.342 -6.45,9.831 -11.629,13.01 -1.763,1.073 -1.837,1.091 -2.109,-1.037 -0.962,-7.649 -3.179,-14.881 -6.833,-21.678 -6.159,-11.52 -15.389,-19.48 -27.655,-23.969 -1.583,-0.581 -3.108,-0.799 -4.67,-0.271 -4.253,1.435 -8.379,1.09 -12.502,-0.564 -3.833,-1.544 -7.814,-2.727 -11.594,-4.398 -2.092,-0.926 -3.87,-2.489 -5.798,-3.78 -0.289,-0.199 -0.528,-0.525 -0.852,-0.635 -0.087,-0.025 -0.176,-0.046 -0.264,-0.07 -0.839,0.461 -1.685,0.909 -2.536,1.348 -0.004,0.15 -0.007,0.3 0,0.449 0.382,8.194 0.89,16.372 1.163,24.566 0.111,3.544 -0.146,7.124 -0.38,10.668 -0.182,2.508 -0.438,2.707 -3.127,3.308 -1.252,0.29 -1.854,0.744 -1.653,2.181 1.581,11.283 5.014,21.788 12.556,30.583 3.255,3.815 7.252,6.686 11.884,8.631 l 0.401,0.145 c 0.328,0.237 0.637,0.49 0.945,0.726 -0.382,0.165 -0.764,0.382 -1.146,0.456 -2.852,0.581 -5.687,1.143 -8.54,1.672 -1.982,0.344 -3.979,0.617 -5.96,0.925 l -11.776,0 c -1.836,-0.308 -3.687,-0.635 -5.524,-0.908 -15.283,-2.308 -27.804,-9.285 -36.961,-21.933 -1.145,-1.583 -1.309,-1.799 -2.891,-0.618 -3.214,2.4 -6.358,1.871 -9.792,0.563 -13.831,-5.252 -24.897,-14.138 -34.145,-25.477 -4.852,-5.941 -8.849,-12.41 -12.357,-19.188 -1.017,-1.999 -0.944,-1.818 -2.654,-0.546 -5.033,3.762 -6.504,9.23 -7.376,14.974 -1.689,10.993 1.399,20.805 7.577,29.838 0.509,0.727 0.89,1.562 1.326,2.343 -0.925,0.056 -1.852,0.2 -2.762,0.128 -21.841,-1.762 -38.106,-12.83 -50.407,-30.383 -2.745,-3.908 -4.943,-8.195 -7.287,-12.356 -0.563,-1 -1.072,-1.527 -2.272,-1.581 -2.889,-0.163 -5.778,-0.419 -8.667,-0.745 -0.727,-0.092 -1.545,-0.455 -2.054,-0.945 -7.686,-7.542 -14.99,-15.429 -21.151,-24.297 -2.527,-3.634 -4.907,-7.376 -5.833,-11.829 -0.218,-1.017 -0.674,-1 -1.255,-0.272 -0.654,0.781 -1.271,1.6 -1.908,2.381 -1.326,1.689 -1.381,1.724 -2.434,-0.073 -1.763,-3 -3.561,-5.98 -5.18,-9.068 -3.798,-7.287 -7.304,-14.7 -8.921,-22.824 -0.473,-2.399 -0.456,-4.906 -0.746,-7.341 -0.254,-2.125 -0.618,-4.253 -0.926,-6.378 l 0,-10.03 c 0.454,-2.327 0.872,-4.671 1.344,-6.98 2.09,-10.085 6.797,-18.77 13.92,-26.166 0.254,-0.273 0.527,-0.508 0.781,-0.781 0.528,-0.51 0.781,-0.346 1.054,0.289 0.455,1.055 0.928,2.146 1.562,3.091 1.163,1.69 2.854,2.598 4.89,2.217 3.343,-0.6 6.141,-2.144 7.649,-5.433 1.309,-2.854 0.835,-5.289 -1.418,-7.798 -2.089,-2.305 -4.288,-4.559 -6.178,-7.012 -6.832,-8.924 -11.392,-18.899 -12.974,-30.057 -1.689,-11.793 0.471,-22.986 5.632,-33.634 2.399,-4.999 5.253,-9.686 9.069,-13.775 7.014,-7.56 13.92,-15.227 20.933,-22.787 1.727,-1.853 3.69,-3.49 5.652,-5.108 0.8,-0.671 0.744,-1.035 0.091,-1.671 -0.945,-0.89 -1.817,-1.888 -2.798,-2.761 -0.892,-0.781 -0.8,-1.364 0.145,-2.016 3.998,-2.782 7.886,-5.725 11.974,-8.359 21.607,-13.903 44.794,-24.151 69.925,-29.784 14.519,-3.272 29.219,-4.743 44.103,-4.071 12.738,0.565 25.241,2.654 37.449,6.397 0.564,0.18 1.073,0.526 1.601,0.798 -0.511,0.255 -1.017,0.509 -1.527,0.746 -1.216,0.564 -2.416,1.108 -3.615,1.671 0.963,0.874 1.891,1.762 2.87,2.634 5.271,4.69 10.377,9.542 14.537,15.283 1.109,1.528 2.073,3.145 3.018,4.779 1.726,3.017 1.907,6.324 1.836,9.722 -0.11,4.053 -0.038,4.036 4.124,4.089 2.78,0.036 5.504,-0.18 8.141,-1.163 0.925,-0.344 1.399,-0.78 1.435,-1.869 0.037,-1.945 0.181,-2.074 2.308,-2.183 5.323,-0.29 10.576,0.054 15.755,1.508 12.12,3.415 21.388,10.812 28.729,20.808 2.233,3.053 4.47,6.068 7.324,8.594 3.16,2.816 6.358,5.543 10.72,6.359 0.473,0.092 0.926,0.401 1.308,0.709 8.25,6.816 15.173,14.701 18.918,24.859 2.035,5.543 4.778,10.721 7.049,16.119 1.926,4.561 3.889,9.085 5.615,13.701 0.674,1.799 0.98,3.817 1.017,5.742 0.148,5.217 0.036,10.448 0.074,15.665 0.018,0.906 0.129,1.907 0.509,2.707 3.836,8.269 6.014,16.937 6.578,26.021 0.037,0.636 0.254,1.252 0.382,1.891 l 0,4.797 c -0.31,2.361 -0.602,4.724 -0.928,7.087"
             style="fill:#231f20;fill-opacity:1;fill-rule:nonzero;stroke:none"
             id="path110"
             inkscape:connector-curvature="0" />
        </g>
        <g
           id="g112"
           transform="translate(86.0073,282.3887)">
          <path
             d="m 0,0 c 1.963,1.635 4.088,2.452 6.632,1.508 0.983,-0.365 1.563,-0.891 1.563,-2.053 0,-1 0.2,-2.018 0.437,-3.018 1.361,-5.923 4.396,-10.429 10.703,-11.884 2.38,-0.545 4.852,-0.964 7.286,-1.127 1.999,-0.108 4.07,0 6.033,0.42 4.288,0.925 7.559,3.543 10.285,6.904 0.472,0.582 1.108,1.325 1.745,1.416 4.379,0.71 8.796,1.418 13.192,0.364 1.38,-0.308 2.363,-0.073 3.454,0.618 9.449,5.995 17.062,13.721 22.332,23.641 0.563,1.072 0.981,2.271 1.218,3.471 0.654,3.49 1.198,6.997 1.762,10.504 0.254,1.598 0.181,1.652 -1.526,1.744 -1.581,0.092 -3.181,0.2 -4.78,0.29 -0.872,0.038 -1.164,0.473 -0.855,1.29 1.236,3.254 2.491,6.507 3.727,9.759 0.291,0.726 0.581,0.69 1.053,0.144 0.29,-0.344 0.692,-0.599 1.055,-0.889 0.125,0.418 0.344,0.816 0.399,1.235 1.017,6.833 1.871,13.684 1.326,20.607 -0.218,2.653 -0.963,5.251 -1.489,7.886 -0.256,1.273 -1.073,1.709 -2.364,1.672 -2.689,-0.09 -5.377,0.018 -8.067,-0.055 -1.327,-0.035 -1.999,0.346 -2.089,1.764 -0.165,2.326 -0.436,4.633 -0.709,6.94 -0.091,0.745 0,1.818 -1.201,1.691 -1.308,-0.147 -1.344,0.618 -1.434,1.562 -0.401,4.324 -0.872,8.668 -1.254,12.994 -0.255,2.961 -0.328,3.162 -3.179,2.961 -3.181,-0.236 -6.379,-0.436 -9.504,-1.018 C 46.301,99.543 37.814,95.654 31.455,88.295 29.057,85.533 26.693,84.26 23.169,84.732 22.26,84.86 21.079,84.532 20.352,83.988 15.154,80.188 10.484,75.847 6.832,70.504 4.725,67.416 2.998,64.125 2.835,60.293 2.725,57.185 2.816,54.06 2.816,50.933 l -0.328,0 0,-6.541 C 2.471,44.118 2.416,43.829 2.362,43.557 c -0.236,0.235 -0.563,0.416 -0.69,0.69 -1.291,3.07 -2.671,6.106 -3.762,9.249 -0.419,1.218 -0.672,1.018 -1.309,0.347 -0.508,-0.511 -1.017,-1.037 -1.471,-1.601 -4.016,-4.907 -6.123,-10.648 -7.068,-16.845 -1.018,-6.688 -0.473,-13.319 0.525,-19.952 C -10.522,9.521 -8.486,4.27 -3.997,0.108 -2.053,-1.69 -2.09,-1.728 0,0"
             style="fill:#f25323;fill-opacity:1;fill-rule:nonzero;stroke:none"
             id="path114"
             inkscape:connector-curvature="0" />
        </g>
        <g
           id="g116"
           transform="translate(265.9067,202.706)">
          <path
             d="m 0,0 c -0.818,6.087 -0.929,12.155 -0.092,18.244 0.163,1.29 0.907,2.907 0.383,3.741 -0.475,0.783 -2.292,0.765 -3.545,1.02 -1.891,0.398 -1.891,0.363 -1.417,2.344 2.254,9.648 3.654,19.387 2.689,29.346 -0.473,5.034 -1.579,9.885 -3.996,14.357 -0.693,1.27 -1.455,2.652 -2.544,3.489 -4.636,3.507 -9.397,6.832 -14.103,10.231 -1.653,1.18 -3.471,1.689 -5.543,1.506 -7.504,-0.689 -15.026,-1.289 -22.551,-1.999 -0.927,-0.089 -1.343,-0.017 -1.436,0.965 -0.09,1.017 -0.308,2.017 -0.47,3.015 -0.364,1.981 -0.382,2.11 -2.344,1.909 -5.271,-0.546 -10.54,-1.09 -15.774,-1.89 -5.16,-0.799 -10.268,-1.945 -15.118,-3.999 -2.762,-1.144 -5.399,-2.507 -7.051,-5.214 -0.311,-0.527 -0.927,-0.927 -1.472,-1.254 -11.157,-6.632 -22.333,-13.284 -33.544,-19.861 -2.181,-1.272 -4.545,-2.235 -6.816,-3.381 -1.38,-0.689 -2.506,-0.599 -3.706,0.547 -1.673,1.599 -3.562,2.979 -5.289,4.523 -0.817,0.727 -1.545,0.817 -2.562,0.471 -9.121,-3.124 -17.445,-7.576 -24.478,-14.246 -5.323,-5.051 -9.138,-11.048 -10.738,-18.317 -1.272,-5.778 -0.872,-11.536 0.146,-17.299 2.489,-14.245 7.831,-27.311 16.5,-38.923 11.048,-14.827 25.748,-24.533 43.12,-30.364 2.962,-1 5.978,-1.763 8.976,-2.635 0.273,-0.072 0.508,-0.218 0.765,-0.327 -0.257,-0.183 -0.492,-0.454 -0.765,-0.545 -1.797,-0.582 -3.615,-1.127 -5.414,-1.671 -1.799,-0.547 -3.599,-1.109 -5.415,-1.655 -0.909,-0.273 -0.8,-0.672 -0.165,-1.146 0.401,-0.307 0.818,-0.599 1.254,-0.852 5.544,-3.162 10.958,-6.614 16.682,-9.396 18.844,-9.211 38.743,-14.282 61.111,-14.464 2.016,0.111 5.361,0.217 8.687,0.456 3.506,0.254 3.506,0.306 3.652,3.833 l 0,0.217 c -0.108,1.218 0.472,1.62 1.672,1.635 2.253,0.037 4.505,0.129 6.741,0.326 7.142,0.62 14.068,2.11 20.443,5.525 8.433,4.49 13.538,11.321 14.193,20.989 0.399,5.725 0.471,11.467 0.527,17.193 0.037,3.706 0.017,7.487 -1.565,10.919 C 4.851,-22.207 1.525,-11.376 0,0"
             style="fill:#f25323;fill-opacity:1;fill-rule:nonzero;stroke:none"
             id="path118"
             inkscape:connector-curvature="0" />
        </g>
        <g
           id="g120"
           transform="translate(209.2949,371.6269)">
          <path
             d="m 0,0 c -0.109,-0.067 -0.211,-0.142 -0.319,-0.211 0.097,0.115 0.188,0.234 0.286,0.35 C -0.021,0.093 -0.012,0.046 0,0 m -25.579,-54.732 c 3.599,-7.576 9.05,-13.1 17.499,-15.063 4.379,-1.018 8.795,-0.91 13.192,-0.165 1.255,0.2 2.145,0.071 2.944,-1.09 1.236,-1.761 3.089,-2.835 5.106,-3.544 2.89,-1 5.871,-0.926 8.833,-0.361 5.088,0.944 9.54,3.45 13.918,5.994 5.089,2.946 9.415,6.779 12.993,11.467 3.306,4.325 5.616,9.122 6.868,14.447 0.438,1.871 0.311,2.053 -1.652,2.416 -0.927,0.163 -1.855,0.308 -2.782,0.491 -1.778,0.344 -1.869,0.472 -0.908,1.999 2.689,4.307 5.342,8.667 8.197,12.866 2.269,3.36 4.743,6.595 7.32,9.721 0.928,1.146 1.493,2.126 1.474,3.634 -0.054,10.25 -0.019,20.482 -0.019,30.73 0,4.196 0.019,4.268 -4.05,5.632 -1.637,0.563 -2.928,1.435 -3.309,3.089 -0.272,1.144 -0.182,2.417 -0.018,3.598 0.654,4.451 1.364,8.885 2.143,13.319 0.219,1.273 -0.164,1.691 -1.399,1.782 -3.399,0.253 -6.794,0.636 -10.192,0.908 C 44.326,47.629 38.093,47.41 31.954,46.139 27.99,45.32 24.229,44.05 21.56,40.706 21.232,40.306 20.449,40.125 19.867,40.107 17.323,40.051 14.761,39.869 12.236,40.143 9.037,40.47 6.893,39.307 4.748,36.943 -2.428,29.003 -9.46,20.971 -15.149,11.885 c -2.635,-4.179 -4.962,-8.54 -5.979,-13.446 -0.236,-1.109 -0.344,-2.254 -0.509,-3.398 -1.18,0.344 -2.344,0.672 -3.525,1.053 -1.526,0.472 -1.617,0.472 -1.562,-1.125 0.127,-4.344 0.328,-8.705 0.545,-13.049 0.055,-1.199 0.254,-2.398 0.399,-3.597 -1.236,-0.055 -2.451,-0.182 -3.67,-0.165 -1.036,0.02 -1.471,-0.435 -1.49,-1.398 l 0,-4.362 -0.127,-0.018 c 0.181,-2.599 0.292,-5.215 0.545,-7.814 0.672,-6.668 2.035,-13.192 4.943,-19.298"
             style="fill:#f25323;fill-opacity:1;fill-rule:nonzero;stroke:none"
             id="path122"
             inkscape:connector-curvature="0" />
        </g>
        <g
           id="g124"
           transform="translate(284.1196,302.7139)">
          <path
             d="M 0,0 C -0.196,-0.163 -0.385,-0.333 -0.574,-0.503 -0.453,0.029 -0.325,0.56 -0.189,1.089 -0.128,0.725 -0.071,0.359 0,0 m -19.594,15.398 c -1.2,-1.908 -2.146,-4.214 -2.381,-6.45 -0.401,-3.581 -0.092,-7.251 -0.128,-10.885 -0.017,-0.908 0.311,-1.489 1.127,-1.89 1.308,-0.637 2.598,-1.289 3.853,-2.017 0.471,-0.255 1.073,-0.708 1.144,-1.127 0.545,-3.707 0.473,-7.358 -0.91,-10.92 -0.435,-1.11 -0.816,-2.363 -0.744,-3.507 0.236,-4.416 1.364,-8.614 3.762,-12.374 6.396,-10.05 16.226,-13.683 28.24,-14.775 3.269,0.565 7.249,0.981 11.102,1.982 12.649,3.251 23.623,9.848 33.98,17.606 0.854,0.638 1.036,1.055 0.073,1.765 -1.455,1.07 -1.4,1.143 0.255,2.07 3.634,2.054 6.868,4.617 9.721,7.649 7.322,7.78 11.013,17.101 11.721,27.695 0.056,1.053 -0.272,1.726 -1.073,2.163 -1.963,1.09 -2.018,2.779 -1.635,4.669 0.219,1.072 0.292,2.163 0.472,3.235 0.057,0.326 0.273,0.638 0.402,0.945 0.253,-0.255 0.488,-0.507 0.744,-0.745 0.29,-0.29 0.598,-0.582 0.907,-0.854 0.22,0.345 0.509,0.672 0.602,1.036 2.143,8.014 4.105,16.062 3.686,24.439 -0.09,1.564 -0.47,3.163 -0.961,4.653 -0.217,0.636 -0.981,1.453 -1.601,1.545 -2.744,0.399 -3.722,2.09 -3.833,4.615 0,0.273 -0.074,0.564 -0.145,0.854 -0.982,3.961 -2.363,7.779 -4.797,11.104 -3.106,4.251 -7.161,6.47 -12.539,5.905 -0.926,-0.091 -1.397,-0.418 -1.835,-1.218 -0.836,-1.598 -1.78,-3.161 -2.744,-4.687 -1.072,-1.764 -2.598,-2.472 -4.742,-2.436 -5.961,0.128 -11.92,0.018 -17.882,0.056 -1.308,0.018 -2.38,-0.274 -3.397,-1.109 -2.326,-1.963 -4.852,-3.744 -7.034,-5.852 -2.673,-2.561 -5.159,-5.307 -7.541,-8.123 -1.853,-2.162 -2.617,-4.815 -2.49,-7.686 0.074,-1.454 0.039,-2.907 0,-4.361 -0.017,-0.4 -0.181,-0.782 -0.271,-1.163 -0.291,0.309 -0.618,0.582 -0.855,0.907 -0.763,1.164 -1.545,2.309 -2.215,3.508 -0.584,1.018 -1.22,1.182 -2.31,0.727 -2.763,-1.108 -5.596,-2.036 -8.358,-3.125 -0.762,-0.309 -1.545,-0.835 -2.09,-1.454 -3.09,-3.47 -6.251,-6.907 -9.085,-10.576 -2.944,-3.778 -5.67,-7.722 -8.195,-11.794"
             style="fill:#f25323;fill-opacity:1;fill-rule:nonzero;stroke:none"
             id="path126"
             inkscape:connector-curvature="0" />
        </g>
        <g
           id="g128"
           transform="translate(388.3457,234.832)">
          <path
             d="m 0,0 c -1.053,0.382 -1.49,0.873 -1.418,2.035 0.108,1.872 0.037,3.763 0.037,5.652 l -0.091,0 c 0,1.89 0.199,3.798 -0.035,5.671 -0.383,2.924 -0.965,5.849 -1.637,8.722 -0.289,1.198 -1.018,2.416 -2.562,2.181 -1.418,-0.201 -1.472,0.472 -1.545,1.579 -0.145,2.09 -0.345,4.197 -0.817,6.234 -0.382,1.69 -1.29,1.998 -2.962,1.436 -1.726,-0.565 -3.397,-1.274 -5.126,-1.819 -1.035,-0.328 -1.561,-0.834 -1.671,-1.962 -0.18,-1.799 -0.507,-3.599 -0.8,-5.377 -0.054,-0.311 -0.291,-0.583 -0.453,-0.857 -0.09,0.256 -0.219,0.51 -0.255,0.783 -0.454,2.579 -0.891,5.143 -1.344,7.724 -0.292,1.707 -0.472,1.889 -2.108,1.688 -12.52,-1.563 -24.133,-5.142 -33.089,-14.718 -0.183,-0.201 -0.474,-0.273 -0.71,-0.419 -0.073,0.256 -0.201,0.508 -0.201,0.764 -0.018,1.673 -0.035,3.344 -0.018,5.017 0.018,0.996 -0.327,1.307 -1.289,0.906 -1.872,-0.782 -3.78,-1.508 -5.651,-2.288 -8.849,-3.671 -17.698,-7.36 -25.987,-12.211 -2.236,-1.309 -4.359,-2.909 -6.25,-4.673 -0.928,-0.851 -1.545,-1.106 -2.583,-0.561 -0.308,0.181 -0.689,0.235 -0.996,0.399 -1.291,0.728 -2.055,0.29 -2.817,-0.908 -3.181,-5.143 -6.163,-10.376 -8.395,-15.99 -1.4,-3.509 -2.581,-7.09 -2.564,-10.959 0,-6.105 0.039,-12.211 -0.036,-18.316 0,-1.291 0.492,-2.073 1.455,-2.907 1.89,-1.672 3.943,-3.327 5.268,-5.417 1.165,-1.834 2.545,-3.289 4.087,-4.688 1.039,-0.926 2.109,-1.818 3.075,-2.798 3.468,-3.599 6.94,-7.214 10.358,-10.885 1.652,-1.764 2.414,-3.89 2.216,-6.379 -0.146,-1.889 -0.037,-3.778 -0.02,-5.669 0.02,-2.324 0.02,-2.344 2.364,-2.779 5.015,-0.91 10.085,-1.328 15.174,-0.944 5.233,0.379 9.719,2.143 13.427,6.229 7.34,8.052 15.137,15.684 23.55,22.645 3.18,2.633 6.416,5.486 10.142,7.05 3.197,1.344 4.56,3.361 5.577,6.213 0.236,0.674 0.544,1.328 0.837,2.001 1.055,2.434 0.837,2.198 -1.035,3.052 -0.383,0.162 -0.71,0.454 -1.073,0.672 0.328,0.273 0.598,0.619 0.961,0.817 11.087,6.563 17.264,16.499 19.862,28.893 C 3.653,-1.38 3.58,-1.326 0,0"
             style="fill:#f25323;fill-opacity:1;fill-rule:nonzero;stroke:none"
             id="path130"
             inkscape:connector-curvature="0" />
        </g>
        <g
           id="g132"
           transform="translate(151.4604,324.4726)">
          <path
             d="m 0,0 c 1.636,-0.563 2.035,-1.69 1.999,-3.379 -0.182,-12.921 -5.87,-22.95 -15.99,-30.656 -5.034,-3.834 -10.522,-6.687 -16.864,-7.632 -11.248,-1.671 -18.406,3.942 -21.369,13.955 -0.364,1.199 -0.183,2.581 -0.256,3.889 l 0.11,0 c 0.472,8.833 0.928,17.662 1.417,26.513 0.11,1.89 0.164,1.962 2.036,1.907 1.38,-0.035 1.798,0.401 2.252,1.817 1.183,3.707 2.781,7.289 4.326,10.885 0.181,0.401 1.054,0.673 1.616,0.71 1.309,0.107 2.618,-0.037 3.926,0.09 0.526,0.054 1.29,0.401 1.509,0.837 1.308,2.652 3.506,4.414 5.923,5.905 6.052,3.743 12.701,6.016 19.48,7.905 0.49,0.145 1.29,-0.11 1.671,-0.474 1.473,-1.398 2.872,-2.889 4.216,-4.397 0.383,-0.455 0.709,-1.109 0.746,-1.689 0.472,-5.869 0.89,-11.722 1.309,-17.59 0.145,-2.089 0.364,-4.198 0.4,-6.288 C -1.507,1.108 -1.07,0.363 0,0"
             style="fill:#231f20;fill-opacity:1;fill-rule:nonzero;stroke:none"
             id="path134"
             inkscape:connector-curvature="0" />
        </g>
        <g
           id="g136"
           transform="translate(158.167,239.249)">
          <path
             d="m 0,0 c 0.417,-0.455 0.745,-0.872 1.381,-0.22 2.289,2.381 5.342,3.471 8.305,4.6 9.303,3.542 18.915,6.066 28.582,8.375 1.799,0.437 3.544,0.816 4.234,2.872 0.073,0.2 0.401,0.327 0.619,0.489 0.055,-0.218 0.127,-0.416 0.163,-0.617 0.163,-1.454 0.345,-2.889 0.473,-4.324 0.108,-1.018 0.416,-1.617 1.617,-1.508 4.652,0.398 8.668,-1.435 12.538,-3.654 5.087,-2.906 9.542,-6.633 13.683,-10.719 0.709,-0.693 1.217,-1.89 1.256,-2.891 0.199,-4.923 0.235,-9.849 0.252,-14.773 0,-1.745 -0.145,-3.49 -0.308,-5.215 -0.107,-1.218 0.452,-1.51 1.526,-1.51 0.928,0.021 1.854,-0.145 2.8,-0.216 -0.256,-0.89 -0.637,-1.781 -0.728,-2.691 -0.308,-2.943 -0.872,-5.924 -0.654,-8.848 0.781,-11.504 3.833,-22.551 7.269,-33.508 0.18,-0.581 0.853,-1 1.237,-1.545 0.326,-0.49 0.743,-1.037 0.815,-1.6 0.42,-3.815 0.818,-7.65 1.109,-11.485 0.073,-0.835 -0.128,-1.743 -0.398,-2.525 -1.164,-3.217 -3.363,-5.561 -6.272,-7.287 -3.797,-2.289 -8.013,-3.38 -12.356,-3.888 -3.379,-0.418 -6.796,-0.527 -9.648,-0.727 -15.447,0.617 -30.075,2.561 -44.013,8.105 -15.954,6.36 -28.929,16.772 -39.814,29.893 -5.723,6.904 -10.666,14.318 -14.59,22.386 -0.311,0.655 -0.727,1.254 -1.201,1.817 -4.014,4.871 -4.905,10.449 -3.326,16.391 1.673,6.342 5.325,11.557 9.85,16.209 0.29,0.291 0.655,0.653 1.036,0.726 5.724,1.091 10.74,3.943 15.9,6.379 4.07,1.908 8.104,3.907 12.084,6.016 1.364,0.707 2.162,0.581 3.09,-0.619 C -2.436,2.507 -1.163,1.289 0,0"
             style="fill:#231f20;fill-opacity:1;fill-rule:nonzero;stroke:none"
             id="path138"
             inkscape:connector-curvature="0" />
        </g>
        <g
           id="g140"
           transform="translate(249.0615,339.1201)">
          <path
             d="m 0,0 c 0.763,-0.364 0.672,-0.944 0.38,-1.637 -2.399,-5.833 -5.358,-11.283 -9.903,-15.756 -7.649,-7.503 -16.774,-9.03 -26.784,-6.196 -2.963,0.839 -5.761,2.345 -8.614,3.563 -1.145,0.473 -1.78,1.327 -2.254,2.489 -2.579,6.251 -4.106,12.758 -4.071,19.479 0.074,13.521 5.272,24.969 14.902,34.401 0.546,0.544 1.307,0.89 2.034,1.198 1.419,0.564 2.873,1.036 4.307,1.545 1.637,0.562 3.109,1.345 4.599,2.325 1.944,1.309 4.251,2.2 6.504,2.927 3.798,1.198 7.688,2.126 11.522,3.234 1.326,0.38 2.326,0.073 3.361,-0.817 3.979,-3.344 6.161,-7.688 6.942,-12.702 0.506,-3.29 0.599,-6.614 0.89,-9.941 C 3.161,16.844 1.526,9.886 -0.8,3.053 -1.236,1.744 -1.49,0.726 0,0"
             style="fill:#231f20;fill-opacity:1;fill-rule:nonzero;stroke:none"
             id="path142"
             inkscape:connector-curvature="0" />
        </g>
        <g
           id="g144"
           transform="translate(338.3554,334.831)">
          <path
             d="M 0,0 C 2.162,0.218 2.4,0.073 2.581,-2.071 2.799,-4.524 2.999,-7.015 2.909,-9.469 2.67,-14.974 2.217,-20.461 1.91,-25.968 c -0.056,-1.163 -0.42,-2.107 -1.293,-2.871 -4.343,-3.834 -6.723,-8.813 -8.195,-14.301 -0.852,-3.161 -3.033,-5.415 -5.487,-7.396 -5.652,-4.56 -12.121,-7.686 -18.79,-10.394 -2.199,-0.908 -4.47,-1.78 -6.795,-2.143 -3.29,-0.527 -6.397,0.58 -9.03,2.489 -2.564,1.87 -4.872,4.087 -7.27,6.196 -1.272,1.109 -1.872,2.508 -1.636,4.252 0.091,0.783 0.019,1.6 0.019,2.4 0.29,9.067 1.544,17.935 5.633,26.166 4.943,9.958 12.592,16.591 23.677,18.698 4.106,0.783 8.339,1 12.521,1.438 C -9.812,-0.927 -4.906,-0.456 0,0"
             style="fill:#231f20;fill-opacity:1;fill-rule:nonzero;stroke:none"
             id="path146"
             inkscape:connector-curvature="0" />
        </g>
        <g
           id="g148"
           transform="translate(340.6279,189.6933)">
          <path
             d="m 0,0 c 0.743,-0.545 0.398,-1.234 -0.091,-1.67 -1.237,-1.108 -2.453,-2.309 -3.852,-3.144 -4.761,-2.799 -10.068,-4.071 -15.41,-5.161 -3.108,-0.635 -6.27,-1.055 -8.742,-1.473 -7.05,0.384 -14.3,3.998 -16.753,13.357 -1.927,7.286 -0.654,14.229 2.125,21.043 4.145,10.139 11.067,17.663 21.407,21.605 3.016,1.146 6.323,1.509 9.523,2.091 4.363,0.78 8.74,1.435 13.1,2.125 0.382,0.055 0.8,-0.036 1.183,-0.054 C 2.288,48.445 2.071,48.174 1.889,47.865 1.672,47.52 1.488,47.157 1.307,46.793 c 0.4,-0.092 0.8,-0.237 1.198,-0.272 3.69,-0.255 7.38,-0.547 11.069,-0.727 1.217,-0.056 1.617,-0.474 1.617,-1.689 C 15.136,38.726 15.246,33.364 15.1,27.985 15.064,26.605 14.592,25.078 13.881,23.877 10.903,18.827 7.796,13.848 4.634,8.905 3.198,6.634 1.561,4.49 -0.039,2.327 -0.638,1.511 -1.109,0.801 0,0"
             style="fill:#231f20;fill-opacity:1;fill-rule:nonzero;stroke:none"
             id="path150"
             inkscape:connector-curvature="0" />
        </g>
        <g
           id="g152"
           transform="translate(164.5434,422.3633)">
          <path
             d="m 0,0 c -0.145,-0.345 -0.271,-0.709 -0.489,-1.017 -3.907,-5.452 -5.362,-11.686 -5.724,-18.246 -0.128,-2.342 -0.018,-4.705 0.035,-7.068 0.055,-1.743 0.092,-1.726 -1.762,-1.817 -3.725,-0.201 -7.432,-0.435 -11.157,-0.635 -0.891,-0.038 -1.618,-0.184 -2.035,-1.146 -0.145,-0.345 -0.799,-0.598 -1.255,-0.636 -0.963,-0.091 -1.963,-0.036 -2.944,-0.036 -0.854,0 -1.689,0.036 -2.543,0 -1.035,-0.073 -1.381,0.399 -1.326,1.399 0.163,3.053 1.108,5.887 2.544,8.558 2.234,4.161 5.432,7.523 9.03,10.503 4.961,4.108 10.504,7.306 16.391,9.905 C -0.853,-0.072 -0.416,-0.072 0,0"
             style="fill:#ffffff;fill-opacity:1;fill-rule:nonzero;stroke:none"
             id="path154"
             inkscape:connector-curvature="0" />
        </g>
        <g
           id="g156"
           transform="translate(254.0581,432.1582)">
          <path
             d="m 0,0 c 2.325,3.18 5.052,5.997 8.215,8.341 6.303,4.687 13.445,6.868 21.805,6.996 1,-0.091 2.561,-0.219 4.125,-0.382 0.291,-0.037 0.561,-0.235 0.853,-0.363 C 34.873,14.337 34.799,13.993 34.599,13.81 28.928,8.903 25.786,2.398 23.041,-4.361 22.842,-4.853 22.605,-5.324 22.48,-5.832 c -0.203,-0.692 -0.62,-0.891 -1.128,-0.4 -1.291,1.272 -2.708,2.49 -3.726,3.96 -0.654,0.928 -1.271,1.435 -2.326,1.418 C 11.83,-0.89 8.358,-0.945 4.906,-1.018 3.47,-1.053 2.035,-1.198 0.6,-1.254 0.234,-1.272 -0.111,-1.108 -0.474,-1.035 -0.328,-0.69 -0.218,-0.309 0,0"
             style="fill:#ffffff;fill-opacity:1;fill-rule:nonzero;stroke:none"
             id="path158"
             inkscape:connector-curvature="0" />
        </g>
        <g
           id="g160"
           transform="translate(364.1225,403.792)">
          <path
             d="M 0,0 C 0.163,0.436 0.256,0.872 0.401,1.308 0.89,2.98 1.072,3.071 2.38,1.836 3.561,0.708 4.69,-0.49 5.634,-1.798 c 2.254,-3.163 3.344,-6.78 3.869,-10.578 0.346,-2.579 0.455,-5.195 0.745,-8.594 -0.452,-3.58 -1.018,-7.905 -1.56,-12.248 -0.166,-1.236 -0.71,-1.944 -2.091,-2.072 -1.544,-0.145 -3.091,-0.508 -4.616,-0.817 -0.671,-0.145 -1.108,-0.055 -1.363,0.672 -1.852,5.362 -5.723,9.104 -9.994,12.557 -1.199,0.963 -1.036,0.835 -0.109,2.035 1.472,1.891 3.033,3.834 3.962,5.996 C -3.49,-9.977 -1.818,-4.961 0,0"
             style="fill:#ffffff;fill-opacity:1;fill-rule:nonzero;stroke:none"
             id="path162"
             inkscape:connector-curvature="0" />
        </g>
        <g
           id="g164"
           transform="translate(389.4003,267.541)">
          <path
             d="m 0,0 c -0.254,1.127 -0.582,1.109 -1.381,0.455 -1.744,-1.437 -1.762,-1.399 -2.4,0.744 -0.49,1.635 -0.999,3.252 -1.363,4.908 -0.107,0.454 0.038,1.251 0.346,1.453 3.015,1.98 5.235,4.743 7.415,7.505 2.235,2.817 4.323,5.759 6.487,8.631 0.307,0.399 0.69,0.728 1.054,1.09 0.181,-0.453 0.49,-0.889 0.545,-1.346 0.58,-4.142 1.106,-8.286 1.469,-10.919 C 11.92,6.541 11.52,2.127 9.595,-2 8.286,-4.779 6.523,-7.159 3.907,-8.832 2.454,-9.757 2.251,-9.668 1.853,-8.013 1.217,-5.342 0.562,-2.688 0,0"
             style="fill:#ffffff;fill-opacity:1;fill-rule:nonzero;stroke:none"
             id="path166"
             inkscape:connector-curvature="0" />
        </g>
      </g>
    </g>
  </g>
</svg>
